<svg width="500" height="500" viewBox="0 0 500 500" fill="none" xmlns="http://www.w3.org/2000/svg">
<g clip-path="url(#clip0_145_2)">
<path d="M500 0H0V500H500V0Z" fill="white"/>
<path d="M441.183 254.356C455.766 238.72 469.456 217.634 462.005 197.858C454.534 178.03 430.032 170.434 408.541 166.643C387.05 162.852 362.672 158.661 350.769 140.968C338.755 123.111 344.493 98.06 332.687 80.074C320.15 60.974 293.449 57.189 270.118 55.28C234.54 52.37 197.903 49.562 163.815 59.822C129.726 70.083 98.3843 96.724 94.5053 131.006C90.5623 165.852 114.902 201.19 104.197 234.684C93.0863 269.449 47.8623 288.625 43.3573 324.747C40.9993 343.656 50.8473 361.768 60.3833 378.439C72.5833 399.769 84.7833 422.449 96.9823 443.779H399.892C395.538 437.845 399.848 429.305 405.926 425.012C412.004 420.719 419.616 418.721 425.458 414.132C440.928 401.981 437.438 378.119 428.716 360.8C419.994 343.481 407.168 326.548 408.225 307.316C409.381 286.302 426.6 269.992 441.183 254.356Z" fill="#F6F8FB"/>
<path d="M68.1925 269.004C100.869 237.537 98.3774 220.792 91.6694 178.869C88.3964 158.411 62.3814 178.46 53.1004 209.473C43.3604 242.014 50.8045 285.747 68.1925 269.004Z" fill="#F6F8FB"/>
<path d="M174.676 427.999C170.354 435.684 110.746 452.127 110.302 429.482C109.929 410.411 153.27 416.089 169.17 422.783C164.429 418.147 159.886 413.359 155.532 408.599C151.363 404.039 147.356 399.348 143.507 394.539C134.153 400.502 76.73 401.94 81.326 380.565C85.003 363.461 119.698 375.052 136.178 384.929C130.384 377.039 124.991 368.865 119.983 360.457C113.084 366.406 51.9021 364.344 58.1671 342.69C63.4021 324.595 102.186 342.197 115.863 353.337C110.742 344.214 106.05 334.844 101.797 325.275C93.077 329.873 34.176 319.831 43.1111 299.421C50.5021 282.537 85.2701 303.725 98.1061 316.664C95.8731 311.26 93.781 305.799 91.811 300.295C82.624 296.546 52.1681 245.285 73.4801 238.863C93.6151 232.794 99.117 286 94.89 298.092C97.1 304.318 99.494 310.474 102.046 316.558C102.795 299.56 116.895 256.589 133.924 266.079C153.101 276.769 114.783 320.959 104.887 323.176C109.077 332.605 113.71 341.823 118.75 350.811C117.738 333.075 126.132 290.752 143.85 297.778C163.987 305.765 132.888 353.391 122.909 358.008C128.99 368.219 135.639 378.09 142.872 387.553C139.427 372.636 144.31 323.631 163.666 329.782C184.998 336.563 154.713 389.387 146.081 391.707C150.03 396.689 154.135 401.56 158.416 406.295C162.253 410.537 166.265 414.797 170.449 418.939C164.284 402.075 159.926 359.731 178.806 361.175C200.391 362.828 184.856 417.472 176.691 424.895C184.476 432.046 192.812 438.624 201.704 443.866C203.75 445.072 201.544 448.034 199.513 446.837C190.661 441.615 182.41 435.088 174.676 427.999Z" fill="#969BA1"/>
<path d="M265.736 446.289C267.841 432.526 270.725 418.886 274.373 405.449C278.014 392.041 282.43 378.845 287.556 365.932C292.692 352.991 298.548 340.334 305.086 328.041C311.61 315.773 318.813 303.871 326.675 292.414C334.514 280.987 342.992 270 352.07 259.531C353.221 258.204 354.383 256.886 355.552 255.575C357.08 253.861 354.336 251.593 352.815 253.299C343.46 263.787 334.707 274.806 326.611 286.293C318.537 297.748 311.103 309.66 304.349 321.941C297.608 334.199 291.552 346.832 286.216 359.763C280.843 372.781 276.215 386.1 272.326 399.635C268.463 413.079 265.358 426.739 263.05 440.534C262.76 442.267 262.484 444.001 262.218 445.738C261.872 447.999 265.388 448.561 265.736 446.289Z" fill="#969BA1"/>
<path d="M322.337 299.297C319.724 272.094 326.925 231.795 327.571 205.011C328.283 175.456 332.413 143.68 357.399 126.546C363.916 122.077 372.229 118.744 381.448 119.978C394.4 121.711 405.71 132.301 410.101 143.208C414.492 154.116 413.335 165.221 411.241 175.628C401.017 226.456 369.146 270.791 322.337 299.297Z" fill="#969BA1"/>
<path d="M283.06 373.034C265.123 354.229 247.088 319.944 231.909 299.56C215.16 277.067 199.746 250.933 208.984 223.626C211.393 216.504 215.853 209.187 223.684 204.757C234.686 198.532 249.605 199.877 259.375 205.476C269.145 211.075 274.752 220.043 279.23 229.032C301.098 272.939 302.471 324.563 283.06 373.034Z" fill="#969BA1"/>
<path d="M269.375 412.603C283.495 386.692 313.965 352.331 330.644 327.989C349.049 301.129 371.739 273.472 403.615 266.833C411.93 265.101 421.11 265.063 428.324 269.547C438.458 275.845 441.844 289.672 439.068 301.277C436.292 312.882 428.609 322.651 420.539 331.44C381.121 374.363 326.93 403.46 269.375 412.603Z" fill="#969BA1"/>
<path d="M258.852 447.664C275.878 442.987 292.396 434.15 307.562 424.501C308.226 424.95 309.192 425.567 310.424 426.255C312.933 427.687 316.543 429.468 320.886 431.092C325.225 432.71 330.312 434.199 335.764 435.256C341.233 436.325 347.07 436.95 352.918 437.171C358.778 437.343 364.642 437.105 370.161 436.387C372.933 436.04 375.591 435.582 378.135 435.044C380.662 434.511 383.056 433.843 385.287 433.197C387.505 432.526 389.531 431.81 391.362 431.095C393.167 430.372 394.739 429.675 396.036 429.036C398.649 427.766 400.15 426.772 400.15 426.772C400.15 426.772 398.715 425.674 396.204 424.25C394.94 423.52 393.403 422.721 391.647 421.885C389.893 421.056 387.898 420.223 385.733 419.393C383.558 418.607 381.211 417.777 378.709 417.094C376.205 416.392 373.579 415.757 370.843 415.232C365.385 414.155 359.545 413.545 353.692 413.345C347.839 413.193 341.962 413.43 336.449 414.154C330.927 414.841 325.768 416.006 321.323 417.345C319.145 418.003 317.146 418.711 315.357 419.416C316.49 418.645 317.623 417.886 318.749 417.115C329.613 409.71 339.966 401.661 349.897 393.149C350.414 393.462 351.015 393.814 351.712 394.211C354.229 395.651 357.843 397.428 362.184 399.043C366.525 400.667 371.6 402.156 377.065 403.214C382.511 404.288 388.367 404.91 394.217 405.129C400.074 405.309 405.941 405.078 411.45 404.347C414.214 404.002 416.883 403.545 419.425 403.001C421.954 402.476 424.358 401.806 426.58 401.154C428.807 400.484 430.827 399.767 432.648 399.063C434.445 398.337 436.031 397.637 437.334 396.998C439.941 395.731 441.442 394.737 441.442 394.737C441.442 394.737 440.004 393.635 437.504 392.213C436.226 391.486 434.691 390.68 432.948 389.849C431.187 389.02 429.2 388.182 427.021 387.355C424.856 386.563 422.507 385.748 420.006 385.05C417.506 384.348 414.868 383.725 412.138 383.196C406.68 382.128 400.836 381.511 394.989 381.315C389.131 381.155 383.26 381.389 377.749 382.108C372.23 382.817 367.057 383.965 362.618 385.309C360.293 386.012 358.175 386.771 356.292 387.502C365.8 378.964 374.875 369.968 383.52 360.553C384.144 360.707 384.852 360.883 385.673 361.06C388.521 361.652 392.5 362.259 397.124 362.49C401.753 362.726 407.047 362.61 412.571 361.955C418.094 361.328 423.853 360.159 429.498 358.587C435.14 356.991 440.658 354.99 445.697 352.629C448.222 351.465 450.628 350.228 452.88 348.937C455.14 347.669 457.225 346.31 459.144 345.016C461.048 343.689 462.782 342.404 464.29 341.175C465.792 339.939 467.105 338.8 468.133 337.792C470.236 335.806 471.364 334.391 471.364 334.391C471.364 334.391 469.669 333.782 466.838 333.176C465.415 332.874 463.721 332.578 461.781 332.315C459.856 332.052 457.716 331.854 455.394 331.718C453.083 331.634 450.587 331.558 448.003 331.656C445.412 331.745 442.709 331.941 439.939 332.256C434.418 332.894 428.661 334.073 423.028 335.657C417.392 337.27 411.883 339.276 406.836 341.64C401.883 343.925 397.411 346.537 393.636 349.097C400.607 340.929 407.289 332.503 413.687 323.853C415.973 322.42 418.739 320.491 421.689 318.042C425.252 315.06 429.052 311.385 432.67 307.161C436.322 302.947 439.745 298.187 442.826 293.203C445.887 288.212 448.588 282.997 450.697 277.837C451.758 275.27 452.679 272.727 453.471 270.259C454.263 267.801 454.867 265.374 455.413 263.122C455.924 260.86 456.309 258.734 456.586 256.81C456.858 254.88 457.04 253.172 457.116 251.717C457.322 248.831 457.179 247.028 457.179 247.028C457.179 247.028 455.525 247.731 453.035 249.208C451.776 249.948 450.329 250.877 448.736 251.999C447.145 253.11 445.417 254.423 443.638 255.905C441.869 257.403 439.993 259.031 438.155 260.865C436.315 262.687 434.462 264.663 432.655 266.77C429.015 270.98 425.594 275.757 422.51 280.743C419.487 285.747 416.79 290.973 414.677 296.12C412.551 301.27 411.002 306.324 409.967 310.843C408.932 315.361 408.43 319.35 408.237 322.245C408.171 323.227 408.148 324.066 408.137 324.773C397.775 338.57 386.64 351.809 374.731 364.273C375.717 361.741 376.812 358.475 377.744 354.69C378.842 350.183 379.717 344.962 380.131 339.417C380.553 333.866 380.476 327.996 380.011 322.163C379.496 316.325 378.577 310.529 377.205 305.138C376.526 302.423 375.77 299.827 374.931 297.374C374.105 294.921 373.166 292.618 372.262 290.485C371.316 288.362 370.374 286.429 369.454 284.712C368.522 283 367.647 281.514 366.851 280.29C365.299 277.856 364.135 276.491 364.135 276.491C364.135 276.491 363.207 278.035 362.09 280.7C361.509 282.042 360.901 283.656 360.274 285.5C359.667 287.349 359.062 289.417 358.498 291.663C357.981 293.919 357.432 296.35 357.04 298.917C356.644 301.47 356.323 304.163 356.117 306.934C355.694 312.491 355.77 318.366 356.263 324.198C356.793 330.039 357.732 335.831 359.093 341.225C360.432 346.618 362.194 351.617 364.05 355.871C365.901 360.117 367.867 363.628 369.433 366.058C369.981 366.92 370.484 367.657 370.909 368.226C358.799 380.546 345.932 392.072 332.229 402.549C332.452 402.05 332.701 401.495 332.969 400.866C334.09 398.194 335.42 394.403 336.524 389.9C337.631 385.393 338.501 380.181 338.919 374.635C339.337 369.087 339.275 363.214 338.796 357.367C338.284 351.531 337.36 345.733 335.991 340.331C335.323 337.647 334.559 335.037 333.717 332.59C332.892 330.141 331.948 327.835 331.047 325.699C330.107 323.571 329.167 321.629 328.239 319.925C327.315 318.219 326.443 316.728 325.644 315.499C324.086 313.078 322.915 311.7 322.915 311.7C322.915 311.7 321.994 313.244 320.871 315.915C320.302 317.25 319.692 318.866 319.065 320.713C318.454 322.561 317.843 324.63 317.291 326.886C316.751 329.134 316.207 331.571 315.836 334.123C315.425 336.685 315.106 339.379 314.906 342.156C314.493 347.699 314.563 353.568 315.059 359.409C315.577 365.245 316.516 371.048 317.875 376.445C319.225 381.84 320.98 386.834 322.834 391.078C324.692 395.327 326.654 398.827 328.219 401.272C328.99 402.481 329.668 403.436 330.145 404.083C324.877 408.059 319.493 411.889 313.973 415.53C307.209 420.004 300.15 424.477 292.864 428.608C293.165 427.986 293.514 427.231 293.88 426.333C295.015 423.657 296.352 419.873 297.433 415.37C298.556 410.868 299.432 405.641 299.831 400.107C300.261 394.543 300.199 388.679 299.707 382.835C299.204 376.999 298.286 371.211 296.925 365.816C296.254 363.106 295.478 360.503 294.635 358.051C293.817 355.603 292.868 353.292 291.968 351.162C291.035 349.048 290.085 347.099 289.16 345.389C288.229 343.681 287.349 342.193 286.568 340.979C285.004 338.539 283.839 337.171 283.839 337.171C283.839 337.171 282.92 338.716 281.784 341.384C281.226 342.72 280.606 344.341 279.989 346.18C279.368 348.029 278.775 350.096 278.201 352.351C277.678 354.597 277.128 357.047 276.76 359.595C276.351 362.157 276.026 364.844 275.826 367.619C275.41 373.175 275.487 379.039 275.972 384.88C276.51 390.714 277.425 396.508 278.797 401.917C280.141 407.312 281.903 412.293 283.749 416.545C285.612 420.8 287.575 424.293 289.15 426.741C289.929 427.981 290.62 428.946 291.11 429.598C280.413 435.546 269.22 440.684 257.698 443.847C255.241 444.538 256.391 448.341 258.852 447.664Z" fill="#BEBEBE"/>
<path d="M184.379 96.799C189.121 96.799 192.965 100.643 192.965 105.385C192.965 106.966 194.246 108.247 195.827 108.247C197.408 108.247 198.689 106.966 198.689 105.385C198.689 97.481 192.282 91.074 184.378 91.074C182.797 91.074 181.516 92.355 181.516 93.936C181.517 95.518 182.799 96.799 184.379 96.799Z" fill="#FECD27"/>
<path d="M184.379 85.351C195.444 85.351 204.414 94.321 204.414 105.386C204.414 106.967 205.695 108.248 207.276 108.248C208.857 108.248 210.138 106.967 210.138 105.386C210.138 91.16 198.605 79.627 184.379 79.627C182.798 79.627 181.517 80.908 181.517 82.489C181.517 84.069 182.799 85.351 184.379 85.351Z" fill="#FECD27"/>
<path d="M209.423 119.439C209.103 118.505 208.324 117.802 207.362 117.579L190.189 113.658C189.242 113.443 188.25 113.723 187.556 114.402C187.155 114.774 187.127 114.803 185.266 118.352C179.093 115.508 174.147 110.541 171.327 104.356C174.962 102.524 174.99 102.524 175.363 102.095C176.042 101.4 176.322 100.409 176.107 99.4619L172.186 82.4899C171.963 81.5279 171.26 80.7489 170.326 80.4289C169.658 80.1899 168.967 80.0179 168.265 79.9139C167.542 79.7459 166.803 79.6499 166.061 79.6279C158.79 79.6279 152.895 85.5229 152.895 92.7939C152.927 117.124 172.642 136.839 196.972 136.871C204.243 136.871 210.138 130.976 210.138 123.705C210.139 122.976 210.082 122.249 209.966 121.53C209.847 120.817 209.665 120.118 209.423 119.439Z" fill="#592E03"/>
<path d="M349.667 104.83H314.501C307.213 104.83 301.25 98.867 301.25 91.579C301.25 84.291 307.213 78.328 314.501 78.328H349.667C356.955 78.328 362.918 84.291 362.918 91.579C362.918 98.867 356.956 104.83 349.667 104.83Z" fill="#592E03"/>
<path d="M352.974 108.902C352.974 110.519 351.663 111.83 350.046 111.83C348.429 111.83 347.118 110.519 347.118 108.902C347.118 107.285 348.429 105.974 350.046 105.974C351.663 105.974 352.974 107.285 352.974 108.902Z" fill="#592E03"/>
<path d="M324.396 91.2201C324.396 93.3421 322.676 95.062 320.554 95.062C318.432 95.062 316.712 93.3421 316.712 91.2201C316.712 89.0981 318.432 87.3781 320.554 87.3781C322.676 87.3781 324.396 89.0981 324.396 91.2201Z" fill="white"/>
<path d="M335.927 91.2201C335.927 93.3421 334.207 95.062 332.085 95.062C329.963 95.062 328.243 93.3421 328.243 91.2201C328.243 89.0981 329.963 87.3781 332.085 87.3781C334.207 87.3781 335.927 89.0981 335.927 91.2201Z" fill="white"/>
<path d="M347.457 91.2201C347.457 93.3421 345.737 95.062 343.615 95.062C341.493 95.062 339.773 93.3421 339.773 91.2201C339.773 89.0981 341.493 87.3781 343.615 87.3781C345.737 87.3781 347.457 89.0981 347.457 91.2201Z" fill="white"/>
<path d="M298.407 135.618H333.573C340.861 135.618 346.824 129.655 346.824 122.367C346.824 115.079 340.861 109.116 333.573 109.116H298.407C291.119 109.116 285.156 115.079 285.156 122.367C285.156 129.655 291.119 135.618 298.407 135.618Z" fill="#FECD27"/>
<path d="M295.1 139.69C295.1 141.307 296.411 142.618 298.028 142.618C299.645 142.618 300.956 141.307 300.956 139.69C300.956 138.073 299.645 136.762 298.028 136.762C296.411 136.762 295.1 138.073 295.1 139.69Z" fill="#FECD27"/>
<path d="M308.302 122.13C308.302 124.252 306.582 125.972 304.46 125.972C302.338 125.972 300.618 124.252 300.618 122.13C300.618 120.008 302.338 118.288 304.46 118.288C306.582 118.288 308.302 120.008 308.302 122.13Z" fill="white"/>
<path d="M319.833 122.13C319.833 124.252 318.113 125.972 315.991 125.972C313.869 125.972 312.149 124.252 312.149 122.13C312.149 120.008 313.869 118.288 315.991 118.288C318.112 118.288 319.833 120.008 319.833 122.13Z" fill="white"/>
<path d="M331.363 122.13C331.363 124.252 329.643 125.972 327.521 125.972C325.399 125.972 323.679 124.252 323.679 122.13C323.679 120.008 325.399 118.288 327.521 118.288C329.643 118.288 331.363 120.008 331.363 122.13Z" fill="white"/>
<path d="M246.629 214.702C245.411 217.844 243.368 220.366 240.965 221.996C237.899 224.105 234.236 224.779 230.92 223.496C225.017 221.213 222.484 213.56 225.256 206.418C228.017 199.276 235.051 195.34 240.954 197.623C240.987 197.634 241.019 197.645 241.052 197.667C246.89 200.004 249.38 207.603 246.629 214.702Z" fill="#242424"/>
<path d="M101.909 204.04C108.087 213.456 126.076 240.82 136.167 255.651C128.516 269.969 112.496 277.889 112.496 277.889C112.496 277.889 104.213 255.726 99.851 243.73C95.489 231.735 92.11 222.395 92.241 216.261C92.259 215.413 92.954 215.13 93.426 215.032L92.767 213.839C91.964 212.385 92.539 210.555 94.029 209.822C94.976 209.356 96.049 209.478 96.884 210.018L95.662 208.041C94.652 206.407 95.057 204.271 96.595 203.12C98.308 201.839 100.735 202.252 101.909 204.04Z" fill="#FCBB8C"/>
<path d="M107.653 242.086C107.842 234.64 114.511 228.755 117.065 227.115L117.952 228.498C114.686 230.594 109.446 236.15 109.295 242.128L107.653 242.086Z" fill="#FB927E"/>
<path d="M96.9797 210.008L96.2695 210.422L105.9 226.939L106.61 226.525L96.9797 210.008Z" fill="#FCBB8C"/>
<path d="M93.5014 215.119L92.7612 215.474L100.415 231.421L101.155 231.066L93.5014 215.119Z" fill="#FB927E"/>
<path d="M270.451 228.42L270.489 229.047L270.855 248.268L271.79 297.08L213.354 281.368L241.501 262.849L241.218 255.499L240.264 229.969C239.924 221.679 246.346 214.661 254.631 214.242C262.944 213.848 269.959 220.217 270.451 228.42Z" fill="#FCBB8C"/>
<path d="M270.451 228.42L270.489 229.047L270.855 248.268C267.833 249.891 264.691 251.286 261.543 252.55C256.474 254.584 251.972 256.008 246.493 256.022C244.736 256.022 242.9 256.001 241.218 255.499L240.264 229.969C239.924 221.679 246.346 214.661 254.631 214.242C262.944 213.848 269.959 220.217 270.451 228.42Z" fill="#FB927E"/>
<path d="M282.897 218.419C278.571 228.903 275.302 232.979 271.748 231.855C261.501 249.406 247.4 256.019 234.821 252.605C224.615 249.861 225.139 234.991 228.002 221.528C228.681 218.42 229.467 215.358 230.269 212.557C231.595 207.994 233.788 201.728 236.853 194.702C228.77 169.651 253.032 164.159 269.044 182.416C269.898 181.788 270.813 181.314 271.769 181.073C275.997 179.876 280.747 183.025 284.305 194.688C291.629 202.716 287.25 207.933 282.897 218.419Z" fill="#592E03"/>
<path d="M277.186 194.013C275.858 191.55 273.395 188.499 269.045 182.415C269.899 181.787 270.814 181.313 271.77 181.072C273.867 185.01 276.857 191.149 277.186 194.013Z" fill="#3B3E63"/>
<path d="M279.548 222.028C274.635 231.918 267.028 227.472 266.344 223.502C262.366 229.299 259.781 230.791 258.01 230.975C256.238 231.16 251.306 228.048 249.194 227.362C247.054 226.651 236.386 229.756 228.029 221.553L228.001 221.528C228.68 218.42 229.466 215.358 230.268 212.557C231.594 207.994 233.787 201.728 236.852 194.702C241.383 188.951 255.217 177.87 271.399 206.394C270.104 211.899 269.177 216.123 268.01 218.945C275.907 209.4 284.462 212.164 279.548 222.028Z" fill="#FCBB8C"/>
<path d="M269.228 220.682C269.591 219.727 270.128 218.847 270.825 218.102C271.496 217.331 272.322 216.683 273.258 216.201C274.189 215.724 275.246 215.392 276.364 215.449C276.915 215.464 277.494 215.607 277.988 215.928C278.478 216.241 278.837 216.812 278.763 217.339C278.462 216.903 278.067 216.716 277.663 216.666C277.268 216.595 276.849 216.642 276.436 216.729C275.61 216.914 274.801 217.254 274.01 217.661C273.215 218.063 272.443 218.547 271.663 219.066C270.872 219.573 270.119 220.156 269.228 220.682Z" fill="#FCBB8C"/>
<path d="M270.225 219.58C270.595 219.126 271.151 218.817 271.733 218.675C272.318 218.522 272.943 218.519 273.549 218.666C274.147 218.824 274.743 219.16 275.111 219.698C275.494 220.226 275.567 220.898 275.421 221.455C275.077 220.313 274.321 219.693 273.345 219.461C272.866 219.33 272.35 219.295 271.829 219.306C271.308 219.333 270.775 219.392 270.225 219.58Z" fill="#FCBB8C"/>
<path d="M241.639 209.469C236.736 215.886 230.916 218.6 230.183 220.314C229.45 222.028 231.988 225.383 238.319 226.534C242.065 224.16 239.035 220.273 241.639 209.469Z" fill="#FB927E"/>
<path d="M253.548 212.091C253.638 213.596 252.719 214.875 251.494 214.948C250.269 215.021 249.204 213.861 249.113 212.357C249.023 210.852 249.942 209.573 251.167 209.5C252.392 209.426 253.458 210.586 253.548 212.091Z" fill="#592E03"/>
<path d="M237.686 210.603C237.402 212.083 236.196 213.096 234.991 212.865C233.786 212.634 233.039 211.247 233.323 209.767C233.606 208.287 234.813 207.274 236.018 207.505C237.223 207.735 237.97 209.122 237.686 210.603Z" fill="#592E03"/>
<path d="M254.072 198.516C258.489 198.642 260.581 203.866 261.25 206.704C261.579 208.102 260.653 208.481 259.905 207.175C258.985 205.57 256.497 202.657 253.684 201.542C251.694 200.753 252.356 198.467 254.072 198.516Z" fill="#592E03"/>
<path d="M241.438 196.354C237.712 194.826 234.589 197.475 233.012 199.689C232.179 200.859 232.799 202.021 234.06 201.199C235.61 200.188 237.393 198.938 240.406 199.225C242.536 199.428 243.026 197.005 241.438 196.354Z" fill="#592E03"/>
<path d="M201.222 416.205C214.623 420.911 228.437 423.756 251.396 421.592C264.803 378.283 266.96 274.253 267.399 268.454C256.884 272.496 243.906 274.848 238.417 262.059C212.121 291.71 201.068 337.013 201.222 416.205Z" fill="white"/>
<path d="M271.028 257.373C256.821 265.575 247.871 290.48 245.511 328.53C243.151 366.579 240.228 401.353 241.194 412.701C242.16 424.048 245.54 442.379 265.883 444.011C286.225 445.642 316.227 446.694 316.227 446.694C316.227 446.694 292.308 299.86 291.496 291.069C290.684 282.278 287.749 268.494 271.028 257.373Z" fill="#FECD27"/>
<path d="M440.177 421.202C430.816 414.941 403.612 396.711 388.871 386.489C374.486 394.013 366.425 409.963 366.425 409.963C366.425 409.963 388.514 418.442 400.471 422.909C412.427 427.376 421.737 430.839 427.871 430.761C428.719 430.75 429.008 430.058 429.11 429.587L430.298 430.256C431.745 431.072 433.58 430.513 434.326 429.029C434.8 428.086 434.688 427.012 434.155 426.172L436.122 427.412C437.747 428.437 439.886 428.05 441.051 426.522C442.346 424.822 441.955 422.391 440.177 421.202Z" fill="#FCBB8C"/>
<path d="M396.503 392.572L429.987 401.199C431.922 401.698 433.111 403.644 432.67 405.593C432.21 407.631 430.154 408.882 428.132 408.355L408.124 403.142C408.124 403.142 392.279 400.422 396.503 392.572Z" fill="#FCBB8C"/>
<path d="M406.19 414.438C404.919 414.847 403.578 415.098 402.183 415.12L402.157 413.478C408.137 413.379 413.736 408.191 415.862 404.943L417.236 405.841C415.886 407.907 411.706 412.664 406.19 414.438Z" fill="#FB927E"/>
<path d="M417.741 416.29L417.321 416.996L433.753 426.772L434.172 426.066L417.741 416.29Z" fill="#FB927E"/>
<path d="M413.128 421.711L412.767 422.448L428.646 430.242L429.008 429.505L413.128 421.711Z" fill="#FB927E"/>
<path d="M271.028 257.373C289.4 270.379 295.093 279.732 300.622 291.091C306.151 302.45 326.918 339.697 333.095 347.596C339.271 355.494 388.872 386.489 388.872 386.489L362.382 415.734C362.382 415.734 311.605 393.365 301.849 382.83C292.091 372.295 270.525 333.112 271.028 257.373Z" fill="#FECD27"/>
<path d="M241.368 259.737L241.555 264.602C230.463 276.803 221.868 298.292 217.125 325.868C211.736 357.101 209.664 390.311 209.452 417.799C209.328 436.709 191.853 436.472 183.208 430.017C185.045 405.132 192.243 345.057 196.15 326.707C199.893 309.126 207.473 258.047 241.368 259.737Z" fill="#FECD27"/>
<path d="M241.387 260.05L241.444 261.436C223.898 268.308 214.537 301.51 214.537 301.51C214.537 301.51 203.608 335.815 193.58 343.744C174.116 359.133 159.61 355.052 148.65 343.412C142.862 337.265 106.333 278.967 106.333 278.967L136.212 255.268L170.052 300.717C170.052 300.717 198.762 280.224 209.584 272.26C219.35 265.043 227.668 259.929 241.387 260.05Z" fill="#FECD27"/>
<path d="M276.321 324.899L274.79 325.495L293.197 372.726L294.727 372.129L276.321 324.899Z" fill="#BB4344"/>
<path d="M202.392 305.442L194.394 330.761L195.96 331.256L203.958 305.937L202.392 305.442Z" fill="#BB4344"/>
<path d="M104.74 222.945L74.064 192.269V218.544C74.064 223.627 78.184 227.747 83.267 227.747H126.214C131.297 227.747 135.417 223.627 135.417 218.544V192.269L104.74 222.945Z" fill="#592E03"/>
<path d="M135.416 192.268V187.867C135.416 182.784 131.296 178.664 126.213 178.664H83.266C78.183 178.664 74.063 182.784 74.063 187.867V192.268L104.739 222.944L135.416 192.268Z" fill="#592E03"/>
<path d="M129.542 195.926C135.785 195.926 140.846 190.865 140.846 184.622C140.846 178.379 135.785 173.318 129.542 173.318C123.299 173.318 118.238 178.379 118.238 184.622C118.238 190.865 123.299 195.926 129.542 195.926Z" fill="#FECD27"/>
<path d="M101.222 207.362H81.0771V211.86H101.222V207.362Z" fill="#FECD27"/>
<path d="M130.151 247.965L121.82 214.406C121.339 212.466 119.403 211.261 117.45 211.684C115.409 212.126 114.139 214.171 114.648 216.197L119.684 236.25C119.684 236.25 122.264 252.12 130.151 247.965Z" fill="#FCBB8C"/>
<path d="M242.219 230.122C242.208 230.176 242.211 230.229 242.2 230.283C240.978 239.984 229.421 240.971 228.566 229.127C228.508 228.514 228.488 227.859 228.507 227.175C231.7 227.294 239.377 229.248 242.219 230.122Z" fill="#FB927E"/>
<path d="M242.219 230.122C242.208 230.176 242.211 230.229 242.2 230.283C240.892 230.617 239.47 230.823 237.96 230.9C234.168 231.092 230.745 230.382 228.566 229.127C228.508 228.514 228.488 227.859 228.507 227.175C231.7 227.294 239.377 229.248 242.219 230.122Z" fill="#F6F8FB"/>
<path d="M284.817 223.628C283.599 226.77 281.556 229.292 279.153 230.923C276.087 233.032 272.424 233.706 269.108 232.423C263.205 230.14 260.672 222.487 263.444 215.344C266.205 208.202 273.239 204.267 279.142 206.549C279.175 206.56 279.207 206.571 279.24 206.593C285.078 208.931 287.567 216.529 284.817 223.628Z" fill="#242424"/>
<path d="M275.503 206.723C280.006 200.391 274.9 188.149 269.046 182.415C269.046 182.415 266.93 180.106 266.218 179.541C267.536 179.562 268.017 179.792 269.356 180.817C270.695 181.842 288.498 192.606 281.685 209.112C281.685 209.112 275.858 208.157 275.503 206.723Z" fill="#242424"/>
<path d="M284.817 223.628C283.599 226.77 281.556 229.292 279.153 230.923C270.902 232.782 264.423 224.509 270.076 214.758C272.555 210.486 275.849 207.866 279.24 206.594C285.078 208.931 287.567 216.529 284.817 223.628Z" fill="#FECD27"/>
<path d="M268.076 226.502C263.084 231.494 253.285 232.029 245.537 232.155C244.79 232.167 244.177 232.747 244.128 233.493C244.071 234.351 244.782 235.067 245.641 235.019C257.419 234.365 264.74 233.621 269.739 228.262L268.076 226.502Z" fill="#242424"/>
<path d="M245.579 236.563C247.253 236.563 248.611 235.206 248.611 233.531C248.611 231.856 247.253 230.499 245.579 230.499C243.904 230.499 242.547 231.856 242.547 233.531C242.547 235.206 243.904 236.563 245.579 236.563Z" fill="#FECD27"/>
<path d="M150.23 143.351C156.408 143.351 161.416 138.343 161.416 132.165C161.416 125.987 156.408 120.979 150.23 120.979C144.052 120.979 139.044 125.987 139.044 132.165C139.044 138.343 144.052 143.351 150.23 143.351Z" fill="#FECD27"/>
<path d="M267.898 96.9769C267.898 99.5119 265.843 101.566 263.309 101.566C260.774 101.566 258.72 99.5109 258.72 96.9769C258.72 94.4429 260.775 92.3879 263.309 92.3879C265.844 92.3879 267.898 94.4429 267.898 96.9769Z" fill="#592E03"/>
<path d="M216.873 164.943C218.684 164.943 220.151 163.475 220.151 161.665C220.151 159.855 218.684 158.387 216.873 158.387C215.063 158.387 213.595 159.855 213.595 161.665C213.595 163.475 215.063 164.943 216.873 164.943Z" fill="#592E03"/>
<path d="M311.683 265.199C311.683 267.19 310.069 268.805 308.077 268.805C306.086 268.805 304.471 267.191 304.471 265.199C304.471 263.208 306.085 261.593 308.077 261.593C310.069 261.594 311.683 263.208 311.683 265.199Z" fill="#592E03"/>
<path d="M330.054 332.426V401.86C330.054 408.72 324.499 414.286 317.628 414.286H194.415C187.555 414.286 182 408.72 182 401.86V332.426C182 325.566 187.555 320 194.415 320H317.628C324.499 320 330.054 325.566 330.054 332.426Z" fill="#242424"/>
<path d="M288.494 414.285H243.868L242.281 362.071H269.763L288.494 414.285Z" fill="#592E03"/>
<path d="M302.692 436.297H279.396L269.768 362.076H242.285L232.657 436.297H209.361C207.435 436.297 205.874 437.858 205.874 439.784V443.212H306.177V439.784C306.178 437.858 304.617 436.297 302.692 436.297ZM266.092 399.274C266.092 404.833 261.586 409.339 256.027 409.339C250.468 409.339 245.962 404.833 245.962 399.274V395.073C245.962 389.514 250.468 385.008 256.027 385.008C261.586 385.008 266.092 389.515 266.092 395.073V399.274Z" fill="#242424"/>
<path d="M255.902 397.764C232.694 397.764 240.788 426.452 240.788 442.529" stroke="#F6F8FB" stroke-width="2.1742" stroke-miterlimit="10"/>
<path d="M370.641 177.364C365.363 177.364 360.373 178.021 355.937 179.189C353.666 179.787 352.078 181.828 352.078 184.176V218.389V222.785C352.078 226.068 355.103 228.486 358.314 227.802C362.127 226.989 366.287 226.542 370.641 226.542C377.512 226.542 383.91 227.655 389.218 229.561V218.388V180.382C383.91 178.477 377.512 177.364 370.641 177.364Z" fill="#592E03"/>
<g filter="url(#filter0_d_145_2)">
<path d="M407.794 177.364C400.923 177.364 394.525 178.477 389.217 180.383V218.389V229.562C394.525 227.656 400.923 226.543 407.794 226.543C412.148 226.543 416.307 226.99 420.121 227.803C423.332 228.487 426.357 226.069 426.357 222.786V218.39V184.177C426.357 181.829 424.769 179.788 422.498 179.19C418.063 178.021 413.072 177.364 407.794 177.364Z" fill="#592E03"/>
</g>
<path d="M425.336 448.11H72.5659C71.2379 448.11 70.1509 447.023 70.1509 445.695C70.1509 444.367 71.2379 443.28 72.5659 443.28H425.337C426.665 443.28 427.752 444.367 427.752 445.695C427.751 447.023 426.665 448.11 425.336 448.11Z" fill="#242424"/>
</g>
<defs>
<filter id="filter0_d_145_2" x="385.217" y="177.364" width="45.1401" height="60.198" filterUnits="userSpaceOnUse" color-interpolation-filters="sRGB">
<feFlood flood-opacity="0" result="BackgroundImageFix"/>
<feColorMatrix in="SourceAlpha" type="matrix" values="0 0 0 0 0 0 0 0 0 0 0 0 0 0 0 0 0 0 127 0" result="hardAlpha"/>
<feOffset dy="4"/>
<feGaussianBlur stdDeviation="2"/>
<feComposite in2="hardAlpha" operator="out"/>
<feColorMatrix type="matrix" values="0 0 0 0 0 0 0 0 0 0 0 0 0 0 0 0 0 0 0.25 0"/>
<feBlend mode="normal" in2="BackgroundImageFix" result="effect1_dropShadow_145_2"/>
<feBlend mode="normal" in="SourceGraphic" in2="effect1_dropShadow_145_2" result="shape"/>
</filter>
<clipPath id="clip0_145_2">
<rect width="500" height="500" fill="white"/>
</clipPath>
</defs>
</svg>
