<svg width="30" height="30" viewBox="0 0 30 30" fill="none" xmlns="http://www.w3.org/2000/svg">
<path d="M29.1141 14.459V15.4844C29.1141 15.8749 28.9372 16.2655 28.5828 16.5724C24.4769 20.1297 20.3695 23.6855 16.2638 27.2429C15.9177 27.5428 15.5075 27.697 15.02 27.697V26.6716C15.5076 26.6716 15.9177 26.5174 16.2638 26.2175C20.3695 22.6601 24.4768 19.1041 28.5828 15.547C28.9372 15.2402 29.1141 14.8497 29.1141 14.459Z" fill="#EB613C"/>
<path d="M0.885925 15.4795V15.377V15.3257V15.2231V15.1206V15.0693V14.9668V14.8643V14.813V14.7104V14.6079V14.5566V14.4541C0.885925 14.885 1.08224 15.3129 1.44365 15.6265C5.49977 19.144 9.56032 22.6577 13.6183 26.174C13.9992 26.5039 14.4603 26.6564 15.0203 26.6719V27.6973C14.4605 27.6818 13.9992 27.5293 13.6183 27.1994C9.56032 23.6831 5.49977 20.1694 1.44365 16.6519C1.08221 16.3383 0.885925 15.9104 0.885925 15.4795Z" fill="#EB613C"/>
<path d="M14.9644 2.24414C15.4409 2.24414 15.9179 2.40123 16.2812 2.71573C20.3813 6.26616 24.4814 9.81659 28.5806 13.3677C29.2907 13.9828 29.2923 14.9325 28.5829 15.5472C24.4769 19.1045 20.3695 22.6605 16.2639 26.2177C15.9178 26.5176 15.5076 26.6718 15.0202 26.6718C14.4604 26.6564 13.9991 26.5039 13.6182 26.174C9.56026 22.6576 5.49971 19.144 1.44359 15.6265C0.869929 15.1288 0.712341 14.343 1.0951 13.7149C1.20992 13.5262 1.34908 13.3683 1.51888 13.2212C5.56505 9.71874 9.61007 6.21536 13.6555 2.71189C14.0157 2.40018 14.4898 2.24414 14.9644 2.24414Z" fill="#ED7764"/>
<path d="M17.0629 9.81871V10.3109C17.0629 10.267 17.0624 10.2234 17.0611 10.1799C17.0484 9.77061 16.7578 9.51183 16.2856 9.50875C16.0786 9.50734 15.8714 9.50635 15.6644 9.50573C15.474 9.50517 15.2837 9.50489 15.0933 9.50488H15.0652C14.8496 9.50488 14.634 9.5052 14.4184 9.50579C14.1834 9.50644 13.9485 9.50737 13.7134 9.50849C13.3594 9.51004 13.0691 9.66549 12.992 9.92482V9.43264C13.0691 9.1733 13.3594 9.01785 13.7134 9.0163C13.9484 9.01516 14.1834 9.01419 14.4184 9.0136C14.634 9.01302 14.8496 9.0127 15.0652 9.0127H15.0933C15.2837 9.0127 15.474 9.01296 15.6644 9.01354C15.8714 9.01419 16.0786 9.01516 16.2856 9.01656C16.7578 9.01964 17.0484 9.27842 17.0611 9.68767C17.0624 9.7312 17.0629 9.77479 17.0629 9.81871Z" fill="#BF3F1F"/>
<path d="M17.0629 9.81868V10.3109C17.0629 10.267 17.0624 10.2234 17.061 10.1798C17.0483 9.77058 16.7577 9.5118 16.2856 9.50872C16.0785 9.50731 15.8714 9.50632 15.6643 9.5057C15.474 9.50514 15.2836 9.50486 15.0933 9.50485H15.0651C14.8496 9.50485 14.634 9.50518 14.4184 9.50576C14.1833 9.50641 13.9484 9.50734 13.7134 9.50846C13.6631 9.50861 13.6128 9.51205 13.563 9.51877V9.02658C13.6128 9.01986 13.6631 9.01642 13.7134 9.0163C13.9484 9.01516 14.1833 9.01419 14.4184 9.0136C14.6339 9.01302 14.8495 9.0127 15.0651 9.0127H15.0933C15.2836 9.0127 15.4739 9.01296 15.6643 9.01354C15.8714 9.01419 16.0786 9.01516 16.2856 9.01656C16.7578 9.01964 17.0484 9.27842 17.061 9.68767C17.0624 9.73117 17.0629 9.77477 17.0629 9.81868Z" fill="#BF3F1F"/>
<path d="M13.563 9.02637V9.51855C13.4917 9.52831 13.4244 9.5448 13.3624 9.56754V9.07535C13.4243 9.05265 13.4918 9.03612 13.563 9.02637Z" fill="#BF3F1F"/>
<path d="M13.3624 9.07617V9.56836C13.3116 9.58679 13.263 9.61065 13.2173 9.63952V9.14733C13.263 9.11845 13.3116 9.09459 13.3624 9.07617ZM13.2173 9.14733V9.63952C13.1668 9.67172 13.1228 9.70948 13.0865 9.75231V9.26013C13.1228 9.21727 13.1668 9.17953 13.2173 9.14733ZM13.0865 9.26013V9.75231C13.0433 9.80281 13.0111 9.86178 12.992 9.92543V9.43324C13.0111 9.36958 13.0432 9.31062 13.0865 9.26013Z" fill="#BF3F1F"/>
<path d="M15.0807 9.0127H15.0934C15.2838 9.0127 15.474 9.01296 15.6644 9.01354C15.8715 9.01416 16.0787 9.01516 16.2857 9.01656C16.7579 9.01964 17.0485 9.27842 17.0612 9.68767C17.0625 9.7312 17.0629 9.77477 17.0629 9.81865C17.0629 9.89178 17.0618 9.96575 17.0618 10.0419H12.9183C12.9413 9.83289 12.9345 9.6255 12.9921 9.43267C13.0692 9.17333 13.3595 9.01785 13.7135 9.01633C13.9485 9.01519 14.1835 9.01428 14.4185 9.0136C14.6341 9.01305 14.8497 9.01272 15.0654 9.01272L15.0807 9.0127Z" fill="#EB6036"/>
<path d="M20.9763 10.3711L20.9764 10.8633C20.9763 11.0314 20.823 11.1752 20.604 11.1819C20.561 11.1832 20.5179 11.1836 20.4748 11.1836C20.4085 11.1836 20.3423 11.1826 20.2759 11.1826C20.2397 11.1828 20.2035 11.1828 20.1667 11.1828C20.0928 11.1828 20.0162 11.1826 19.9314 11.1826V10.6905C20.0162 10.6905 20.0929 10.6906 20.1667 10.6906C20.2035 10.6906 20.2397 10.6906 20.2759 10.6905C20.3422 10.6905 20.4084 10.6914 20.4748 10.6914C20.5179 10.6914 20.561 10.691 20.604 10.6897C20.823 10.683 20.9763 10.5391 20.9763 10.3711Z" fill="#BF3F1F"/>
<path d="M20.9762 10.3711V10.8633C20.9762 10.8691 20.9761 10.875 20.9758 10.8808V10.3886C20.9761 10.3828 20.9762 10.3769 20.9762 10.3711Z" fill="#BF3F1F"/>
<path d="M20.9758 10.3887V10.8809C20.9718 10.9423 20.9475 10.9999 20.9069 11.0479V10.5558C20.9475 10.5077 20.9719 10.4501 20.9758 10.3887Z" fill="#BF3F1F"/>
<path d="M20.9069 10.5557V11.0479C20.8843 11.0744 20.8579 11.0973 20.8286 11.116V10.6238C20.8579 10.6051 20.8843 10.5822 20.9069 10.5557ZM20.8285 10.6238V11.116C20.8049 11.131 20.779 11.1439 20.751 11.1542V10.662C20.7791 10.6517 20.805 10.6389 20.8285 10.6238Z" fill="#BF3F1F"/>
<path d="M20.7511 10.6621V11.1543C20.7204 11.1655 20.6885 11.1733 20.6561 11.1777V10.6855C20.6885 10.6812 20.7204 10.6733 20.7511 10.6621ZM20.656 10.6855V11.1777C20.6392 11.18 20.6218 11.1814 20.6041 11.182C20.561 11.1833 20.518 11.1837 20.4748 11.1837C20.4085 11.1837 20.3423 11.1827 20.2759 11.1827C20.2397 11.1829 20.2035 11.1829 20.1666 11.1829C20.0928 11.1829 20.0162 11.1827 19.9314 11.1827V10.6906C20.0162 10.6906 20.0929 10.6907 20.1666 10.6907C20.2036 10.6907 20.2397 10.6907 20.2759 10.6906C20.3422 10.6906 20.4084 10.6915 20.4748 10.6915C20.518 10.6915 20.561 10.6911 20.6041 10.6898C20.6214 10.6893 20.6388 10.6878 20.656 10.6855Z" fill="#BF3F1F"/>
<path d="M9.02368 10.8652V10.373C9.02368 10.5433 9.17641 10.6846 9.39514 10.6891C9.48168 10.6909 9.56831 10.6914 9.65541 10.6914C9.79094 10.6914 9.92772 10.6902 10.0675 10.6902V11.1823C9.9277 11.1823 9.79091 11.1836 9.65541 11.1836C9.56825 11.1836 9.48165 11.1831 9.39514 11.1813C9.17641 11.1768 9.02368 11.0355 9.02368 10.8652Z" fill="#BF3F1F"/>
<path d="M10.0675 10.6902V11.1824C9.9277 11.1824 9.79091 11.1837 9.65541 11.1837C9.56825 11.1837 9.48165 11.1831 9.39514 11.1813C9.17641 11.1768 9.02368 11.0355 9.02368 10.8652V10.373C9.02368 10.5433 9.17641 10.6846 9.39514 10.6891C9.48168 10.6909 9.56831 10.6914 9.65541 10.6914C9.79088 10.6915 9.92767 10.6902 10.0675 10.6902Z" fill="#BF3F1F"/>
<path d="M14.8989 12.3565C14.8268 12.3746 14.7688 12.4043 14.7252 12.4456C14.7227 12.2313 14.722 12.1998 14.714 11.9646C14.7585 11.9175 14.8204 11.884 14.8989 11.8643C14.9047 11.8628 14.9106 11.8615 14.9164 11.8603C14.9426 11.8548 14.9688 11.8521 15.001 11.8516H15.0015C15.0072 11.8516 15.0128 11.8517 15.0185 11.8519C15.1682 11.858 15.3027 11.9437 15.3506 12.0684C15.3586 12.0895 15.3643 12.1118 15.367 12.1351C15.3701 12.1604 15.3709 12.186 15.3709 12.2116V12.7038C15.3709 12.6781 15.3702 12.6526 15.367 12.6273C15.3643 12.6045 15.3587 12.5821 15.3506 12.5606C15.3027 12.4358 15.1682 12.3502 15.0185 12.3441C15.0128 12.3439 15.0072 12.3438 15.0015 12.3438C14.9691 12.3442 14.9428 12.347 14.9165 12.3525C14.9106 12.3537 14.9047 12.355 14.8989 12.3565Z" fill="#BF3F1F"/>
<path d="M15.3708 12.2115V12.7037C15.3708 12.6781 15.37 12.6525 15.3669 12.6272C15.3641 12.6044 15.3586 12.582 15.3504 12.5605C15.3026 12.4358 15.1681 12.3501 15.0184 12.3441C15.0127 12.3438 15.007 12.3437 15.0013 12.3437C14.9819 12.3439 14.9625 12.3452 14.9432 12.3478V11.8556C14.9611 11.8532 14.9799 11.8519 15.0013 11.8516C15.007 11.8516 15.0126 11.8517 15.0184 11.8519C15.1681 11.858 15.3026 11.9437 15.3504 12.0684C15.3585 12.0895 15.3641 12.1118 15.3669 12.1351C15.37 12.1604 15.3708 12.1859 15.3708 12.2115Z" fill="#BF3F1F"/>
<path d="M14.9433 11.8555V12.3477C14.9341 12.3489 14.9253 12.3505 14.9164 12.3523C14.893 12.3572 14.87 12.3638 14.8476 12.3721V11.8799C14.87 11.8716 14.893 11.865 14.9164 11.8601C14.9253 11.8583 14.9341 11.8568 14.9433 11.8555Z" fill="#BF3F1F"/>
<path d="M14.8476 11.8799V12.3721C14.8198 12.3823 14.7946 12.3946 14.772 12.409V11.9169C14.7958 11.9018 14.8211 11.8894 14.8476 11.8799Z" fill="#BF3F1F"/>
<path d="M14.772 11.917V12.4092C14.7463 12.4255 14.7231 12.4455 14.7033 12.4687V11.9765C14.7231 11.9533 14.7463 11.9333 14.772 11.917Z" fill="#BF3F1F"/>
<path d="M12.5417 12.7006C12.5178 12.7015 12.494 12.7043 12.4705 12.7089C12.4709 12.5447 12.4715 12.3805 12.4722 12.2164C12.5028 12.2106 12.5339 12.2078 12.565 12.208C12.568 12.208 12.571 12.208 12.574 12.2081V12.7002C12.571 12.7001 12.568 12.7001 12.565 12.7001C12.5555 12.7002 12.5486 12.7004 12.5417 12.7006Z" fill="#BF3F1F"/>
<path d="M12.9368 12.6343V13.1265C12.9368 13.0735 12.9368 13.02 12.9286 12.9679C12.9061 12.8219 12.7714 12.714 12.6031 12.7016C12.5827 12.7002 12.5622 12.6998 12.5418 12.7006C12.5264 12.7012 12.5113 12.7025 12.4967 12.7045V12.2124C12.5194 12.2093 12.5422 12.2078 12.5651 12.208C12.5776 12.2081 12.5902 12.2086 12.6031 12.2095C12.7714 12.2217 12.9061 12.3297 12.9286 12.4757C12.9368 12.5279 12.9368 12.5814 12.9368 12.6343ZM12.4967 12.2124V12.7045C12.4664 12.7086 12.438 12.7156 12.4116 12.7253V12.2331C12.438 12.2234 12.4664 12.2164 12.4967 12.2124Z" fill="#BF3F1F"/>
<path d="M17.0677 12.985V12.9814V12.9777V12.9738V12.9698V12.9659V12.962V12.9582V12.9548V12.9008V12.8436V12.7842V12.7238V12.6633V12.6039V12.5468V12.4929C17.0909 12.3247 17.2352 12.2108 17.4374 12.208V12.7002C17.2352 12.7029 17.0909 12.8169 17.0677 12.985Z" fill="#BF3F1F"/>
<path d="M17.4433 12.208V12.7002C17.4205 12.7003 17.3977 12.7018 17.3752 12.7049V12.2127C17.3977 12.2096 17.4205 12.2081 17.4433 12.208ZM17.3752 12.2127V12.7049C17.3436 12.709 17.3126 12.7166 17.2827 12.7274V12.2353C17.3126 12.2244 17.3436 12.2168 17.3752 12.2127ZM17.2827 12.2353V12.7274C17.2567 12.737 17.2326 12.7489 17.2106 12.763V12.2708C17.2326 12.2568 17.2568 12.2449 17.2827 12.2353ZM17.2106 12.2708V12.763C17.1832 12.7804 17.1586 12.8018 17.1376 12.8265V12.3343C17.1586 12.3096 17.1832 12.2882 17.2106 12.2708ZM17.1376 12.3343V12.8265C17.0988 12.8724 17.0741 12.929 17.0667 12.9932C17.0655 13.0045 17.0645 13.016 17.0638 13.0274V12.5352C17.0645 12.5238 17.0655 12.5124 17.0667 12.5011C17.0741 12.4368 17.0988 12.3802 17.1376 12.3343Z" fill="#BF3F1F"/>
<path d="M17.8039 12.9863C17.7808 12.8208 17.6316 12.7039 17.4432 12.7002V12.208C17.6316 12.2117 17.7807 12.3286 17.8039 12.4941V12.9863Z" fill="#BF3F1F"/>
<path d="M17.8081 12.5677V13.0599C17.8081 13.0365 17.8075 13.013 17.8045 12.9899C17.7831 12.8225 17.633 12.7038 17.4433 12.7002V12.208C17.6331 12.2117 17.783 12.3303 17.8045 12.4977C17.8074 12.5208 17.8081 12.5442 17.8081 12.5677Z" fill="#BF3F1F"/>
<path d="M12.4705 12.7083C12.2985 12.7425 12.1917 12.875 12.1917 13.0712V12.579C12.1917 12.3822 12.2992 12.2494 12.4722 12.2158C12.4718 12.2905 12.4706 12.6357 12.4705 12.7083Z" fill="#BF3F1F"/>
<path d="M12.4967 12.2119V12.7041C12.4664 12.7082 12.4379 12.7151 12.4115 12.7249V12.2327C12.438 12.223 12.4664 12.216 12.4967 12.2119ZM12.4115 12.2327V12.7248C12.3877 12.7336 12.3655 12.7446 12.345 12.7576V12.2654C12.366 12.2521 12.3882 12.2412 12.4115 12.2327Z" fill="#BF3F1F"/>
<path d="M12.3451 12.2656V12.7578C12.3186 12.7747 12.2948 12.7955 12.2745 12.8195V12.3273C12.2948 12.3033 12.3186 12.2825 12.3451 12.2656ZM12.2745 12.3273V12.8195C12.2268 12.876 12.198 12.9508 12.1927 13.0404V12.5482C12.198 12.4586 12.2268 12.3838 12.2745 12.3273ZM12.1927 12.5482V13.0404C12.192 13.0506 12.1918 13.0609 12.1918 13.0715V12.5793C12.1918 12.5688 12.1921 12.5584 12.1927 12.5482Z" fill="#BF3F1F"/>
<path d="M12.5839 12.7004L12.574 12.7001V12.6426V12.5816V12.5183V12.4539V12.3896V12.3263V12.2654V12.208C12.5773 12.208 12.5807 12.2082 12.5839 12.2083C12.5903 12.2085 12.5967 12.2089 12.6031 12.2093C12.7714 12.2216 12.9061 12.3295 12.9286 12.4755C12.9368 12.5277 12.9368 12.5812 12.9368 12.6341V13.1263C12.9368 13.0733 12.9368 13.0199 12.9286 12.9677C12.9061 12.8217 12.7714 12.7138 12.6031 12.7015C12.5967 12.701 12.5903 12.7007 12.5839 12.7004V12.7001V12.6999V12.6996V12.6993V12.6991V12.6988V12.6986V12.6982V12.7004Z" fill="#BF3F1F"/>
<path d="M12.9368 12.6343V13.1265C12.9368 13.0735 12.9368 13.02 12.9285 12.9679C12.9061 12.8219 12.7714 12.714 12.6031 12.7016C12.5827 12.7002 12.5622 12.6998 12.5418 12.7006C12.5264 12.7012 12.5113 12.7025 12.4967 12.7045V12.2124C12.5194 12.2093 12.5422 12.2078 12.5651 12.208C12.5775 12.2081 12.5902 12.2086 12.6031 12.2095C12.7714 12.2217 12.9061 12.3297 12.9285 12.4757C12.9368 12.5279 12.9368 12.5814 12.9368 12.6343Z" fill="#BF3F1F"/>
<path d="M12.5626 12.208C12.5775 12.2081 12.5902 12.2086 12.6031 12.2095C12.7714 12.2218 12.9061 12.3297 12.9285 12.4758C12.9368 12.5279 12.9368 12.5814 12.9368 12.6343C12.9371 13.0339 12.9371 13.4335 12.9371 13.8331L12.9371 15.032C12.9371 15.4373 12.9368 15.8426 12.9368 16.2479C12.9368 16.6532 12.9371 17.0585 12.9383 17.4639C12.9386 17.6199 12.8928 17.7501 12.7183 17.8199C12.6652 17.8402 12.6176 17.8489 12.571 17.8498C12.3844 17.8464 12.2291 17.7371 12.1973 17.5756C12.1918 17.5437 12.1914 17.5188 12.1914 17.4943V17.4773C12.1914 16.661 12.1913 15.8446 12.1913 15.0284C12.1913 14.2122 12.1914 13.3959 12.1917 12.5797C12.1917 12.3576 12.3285 12.2171 12.5417 12.2086C12.5486 12.2081 12.5555 12.208 12.5626 12.208Z" fill="#DB4416"/>
<path d="M19.1847 14.5065C19.1847 15.7302 19.185 16.9539 19.1862 18.1775C19.1865 18.6583 18.9821 19.0393 18.4689 19.249C18.2861 19.3237 18.0658 19.3603 17.862 19.3613C17.3349 19.3636 16.8077 19.365 16.2806 19.3659C15.758 19.3668 15.235 19.3672 14.7123 19.3672C14.1592 19.3672 13.6322 19.3668 13.1051 19.3663L12.1401 19.3654C11.4975 19.3646 11.0262 19.0646 10.8617 18.5514C10.8271 18.4436 10.8195 18.3268 10.8195 18.214C10.818 16.6727 10.8177 15.1311 10.8176 13.5896L10.8177 10.8149V10.6963H19.185V10.8354C19.185 12.059 19.1847 13.2827 19.1847 14.5065ZM15.3702 17.8508C15.3709 17.3812 15.371 16.9115 15.371 16.4418C15.371 15.9721 15.3708 15.5024 15.3708 15.0327C15.3708 14.112 15.3708 13.1916 15.3704 12.2711C15.3704 12.2512 15.3709 12.2312 15.3708 12.2113C15.3708 12.1857 15.37 12.1601 15.3669 12.1348C15.3641 12.112 15.3586 12.0896 15.3504 12.0681C15.3026 11.9434 15.1681 11.8577 15.0184 11.8517C15.0127 11.8515 15.007 11.8513 15.0013 11.8513C14.969 11.8518 14.9427 11.8546 14.9164 11.86C14.9106 11.8612 14.9047 11.8626 14.8988 11.864C14.7211 11.9087 14.6286 12.0238 14.6286 12.2098C14.6284 13.1493 14.6282 14.0888 14.6282 15.0283C14.6282 15.9678 14.6283 16.9072 14.6283 17.8465C14.6283 17.8693 14.6286 17.8921 14.6313 17.9148C14.6475 18.0573 14.7644 18.169 14.926 18.1966C14.9433 18.1996 14.9608 18.2017 14.9784 18.2029C14.9949 18.204 15.0116 18.2042 15.0282 18.2034C15.2256 18.195 15.3697 18.0558 15.3702 17.8508ZM12.7116 17.822C12.8928 17.7495 12.9386 17.6194 12.9383 17.4634C12.9372 17.0581 12.9367 16.6527 12.9368 16.2474C12.9368 15.8421 12.9371 15.4368 12.9371 15.0315L12.9371 13.8326C12.9371 13.4331 12.9371 13.0335 12.9368 12.6338C12.9368 12.5808 12.9368 12.5274 12.9285 12.4753C12.9061 12.3292 12.7714 12.2213 12.6031 12.209C12.5827 12.2076 12.5622 12.2072 12.5418 12.2079C12.3284 12.2165 12.1917 12.357 12.1917 12.5791C12.1915 13.3953 12.1914 14.2115 12.1914 15.0278L12.1915 17.4766L12.1914 17.4937C12.1914 17.5183 12.1918 17.5431 12.1958 17.5672C12.2291 17.7366 12.3843 17.8458 12.5555 17.8492C12.6176 17.8484 12.6652 17.8397 12.7116 17.822ZM17.8078 16.2413C17.8078 15.8378 17.8077 15.4344 17.8077 15.0309V12.6218C17.8077 12.6036 17.808 12.5853 17.808 12.5671C17.808 12.5436 17.8074 12.5202 17.8044 12.4971C17.783 12.3297 17.633 12.211 17.4433 12.2073C17.2348 12.208 17.0865 12.3262 17.0667 12.5004C17.062 12.5418 17.062 12.5837 17.062 12.6252C17.0616 14.2275 17.0616 15.8299 17.062 17.4323C17.062 17.4775 17.0626 17.5233 17.0688 17.5683C17.0897 17.7191 17.2226 17.8309 17.3972 17.8476C17.4052 17.8483 17.4134 17.8488 17.4216 17.8491C17.4434 17.8494 17.4507 17.8492 17.4579 17.8488C17.6047 17.8412 17.7381 17.7569 17.7825 17.6304C17.8024 17.5736 17.8064 17.5113 17.8067 17.4514C17.8075 17.0481 17.8077 16.6447 17.8078 16.2413Z" fill="#EB6036"/>
<path d="M14.995 11.8516C15.007 11.8515 15.0127 11.8516 15.0184 11.8519C15.1681 11.8579 15.3026 11.9436 15.3505 12.0683C15.3585 12.0895 15.3641 12.1118 15.367 12.135C15.3701 12.1603 15.3708 12.1859 15.3708 12.2115C15.3709 12.2314 15.3705 12.2514 15.3705 12.2713C15.3708 13.1917 15.3708 14.1121 15.3708 15.0329C15.3708 15.5025 15.371 15.9722 15.3711 16.442C15.3711 16.9116 15.371 17.3813 15.3702 17.851C15.3696 18.0559 15.2256 18.1952 15.0283 18.2036C15.0219 18.2039 15.0154 18.2041 15.0089 18.2041C14.9988 18.204 14.9886 18.2037 14.9784 18.2031C14.9608 18.202 14.9434 18.1999 14.926 18.1968C14.7645 18.1692 14.6476 18.0575 14.6312 17.915C14.6286 17.8922 14.6283 17.8695 14.6283 17.8467C14.6283 16.9074 14.6282 15.968 14.6282 15.0285C14.6282 14.0891 14.6283 13.1495 14.6286 12.21C14.6286 12.0241 14.721 11.909 14.8988 11.8642C14.9047 11.8628 14.9105 11.8615 14.9164 11.8603C14.9427 11.8548 14.969 11.852 14.995 11.8516Z" fill="#DB4416"/>
<path d="M19.1861 18.1777V18.6699C19.1865 19.1507 18.9821 19.5318 18.4689 19.7415C18.2861 19.8161 18.0658 19.8528 17.862 19.8537C17.3349 19.856 16.8077 19.8575 16.2806 19.8583C15.7579 19.8592 15.235 19.8596 14.7123 19.8596C14.1592 19.8596 13.6322 19.8593 13.1051 19.8588C12.7834 19.8585 12.4618 19.8581 12.1401 19.8579C11.4974 19.8571 11.0262 19.5571 10.8617 19.0438C10.8271 18.9361 10.8195 18.8192 10.8195 18.7064V18.2142C10.8195 18.3271 10.8271 18.4439 10.8617 18.5516C11.0261 19.0649 11.4974 19.3649 12.1401 19.3657C12.4618 19.3661 12.7834 19.3663 13.1051 19.3666C13.6322 19.3672 14.1592 19.3675 14.7123 19.3675C15.235 19.3675 15.7579 19.3671 16.2806 19.3662C16.8077 19.3653 17.3349 19.3638 17.862 19.3615C18.0658 19.3606 18.2861 19.3239 18.4689 19.2493C18.9822 19.0396 19.1865 18.6585 19.1861 18.1777Z" fill="#BF3F1F"/>
<path d="M19.1861 18.1777V18.6699C19.1862 18.7023 19.1853 18.7346 19.1833 18.7669V18.2747C19.1852 18.2429 19.1862 18.2105 19.1861 18.1777ZM19.1833 18.2747V18.7669C19.1683 19.0162 19.093 19.2356 18.9413 19.4143V18.9221C19.093 18.7434 19.1683 18.524 19.1833 18.2747ZM18.9413 18.9221V19.4143C18.8754 19.4921 18.795 19.5621 18.6988 19.6237V19.1315C18.7949 19.0699 18.8754 18.9999 18.9413 18.9221ZM18.6988 19.1313V19.6236C18.6303 19.6673 18.5539 19.7067 18.4689 19.7414C18.4554 19.7469 18.4417 19.7523 18.4279 19.7573V19.2651C18.4417 19.2601 18.4554 19.2547 18.4689 19.2492C18.5538 19.2146 18.6303 19.1752 18.6988 19.1313ZM18.4279 19.2651V19.7574C18.3254 19.795 18.2129 19.8214 18.0993 19.8369V19.3447C18.2129 19.3292 18.3254 19.3028 18.4279 19.2651ZM18.0993 19.3447V19.8369C18.0206 19.8477 17.9413 19.8533 17.862 19.8537C17.3348 19.856 16.8076 19.8575 16.2805 19.8583C15.7579 19.8592 15.2349 19.8596 14.7122 19.8596C14.1591 19.8596 13.6322 19.8593 13.105 19.8588C12.7833 19.8585 12.4617 19.8581 12.14 19.8579C11.4974 19.8571 11.0261 19.5571 10.8616 19.0438C10.827 18.9361 10.8194 18.8192 10.8194 18.7064V18.2142C10.8194 18.3271 10.8271 18.4439 10.8616 18.5516C11.0261 19.0649 11.4974 19.3649 12.14 19.3657C12.4617 19.3661 12.7833 19.3663 13.105 19.3666C13.6322 19.3672 14.1591 19.3675 14.7122 19.3675C15.2349 19.3675 15.7579 19.3671 16.2805 19.3662C16.8076 19.3653 17.3348 19.3638 17.862 19.3615C17.9413 19.3611 18.0206 19.3555 18.0993 19.3447Z" fill="#BF3F1F"/>
<path d="M20.9507 10.2518C21.0437 10.4651 20.8737 10.6813 20.604 10.6894C20.5609 10.6908 20.5179 10.6912 20.4748 10.6912C20.4085 10.6912 20.3422 10.6902 20.2759 10.6902C20.2397 10.6903 20.2035 10.6904 20.1666 10.6904C20.0928 10.6904 20.0162 10.6902 19.9314 10.6902V10.8414C19.9314 13.3004 19.934 15.7597 19.9299 18.2187C19.9287 18.9706 19.5365 19.5226 18.7527 19.8552C18.4938 19.9649 18.2144 20.0102 17.9268 20.0102C16.7715 20.0105 15.616 20.0121 14.4607 20.0121C13.6645 20.0121 12.8687 20.0114 12.0725 20.009C10.9287 20.0054 10.0696 19.2376 10.0685 18.2302C10.0661 16.2674 10.0679 14.3045 10.0679 12.3419C10.0676 11.8378 10.0679 11.3341 10.0676 10.8299V10.6901C9.92773 10.6901 9.79094 10.6914 9.65545 10.6914C9.56829 10.6914 9.48171 10.6908 9.39517 10.6891C9.13507 10.6837 8.9682 10.4847 9.0408 10.2737C9.08275 10.151 9.20621 10.0625 9.35586 10.0509C9.39394 10.048 9.43206 10.0476 9.47029 10.0476L9.5133 10.0476C10.349 10.0473 11.1848 10.0473 12.0205 10.0473H12.1914C12.1914 9.93226 12.1944 9.8274 12.1908 9.72278C12.1645 8.94835 12.8275 8.45197 13.4444 8.38723C14.492 8.37012 15.5072 8.37012 16.5222 8.37012C16.6339 8.3993 16.7485 8.42253 16.8571 8.4583C17.412 8.63988 17.7873 9.09618 17.8053 9.6092C17.8103 9.74912 17.8062 9.88896 17.8062 10.0473H17.9657C18.2887 10.0475 18.6121 10.0475 18.9352 10.0475C19.4739 10.0475 20.0125 10.0475 20.5514 10.0478C20.7614 10.048 20.8916 10.1163 20.9507 10.2518ZM18.4689 19.2491C18.9821 19.0394 19.1865 18.6583 19.1862 18.1775C19.185 16.9539 19.1847 15.7302 19.1847 14.5065C19.1847 13.2827 19.185 12.0591 19.185 10.8355V10.6963H10.8177V10.8151L10.8176 13.5898C10.8176 15.1313 10.8179 16.6727 10.8194 18.2141C10.8194 18.3269 10.8271 18.4438 10.8617 18.5515C11.0261 19.0648 11.4974 19.3647 12.1401 19.3655C12.4617 19.3659 12.7834 19.3662 13.105 19.3665C13.6322 19.367 14.1591 19.3673 14.6863 19.3673C15.2351 19.3673 15.7577 19.367 16.2806 19.3661C16.8077 19.3652 17.3349 19.3637 17.8621 19.3614C18.0658 19.3603 18.2861 19.3238 18.4689 19.2491ZM12.992 9.43242C12.9344 9.62528 12.9412 9.8327 12.9182 10.0416H17.0617C17.0617 9.96554 17.0628 9.89153 17.0628 9.81847C17.0628 9.77458 17.0624 9.73096 17.061 9.68742C17.0483 9.27817 16.7577 9.01939 16.2856 9.01632C16.0785 9.01492 15.8714 9.01391 15.6644 9.0133C15.4739 9.01271 15.2836 9.01245 15.0933 9.01245H15.0651C14.8495 9.01245 14.634 9.01277 14.4184 9.01336C14.1834 9.014 13.9484 9.01494 13.7134 9.01605C13.3594 9.01764 13.0691 9.17314 12.992 9.43242Z" fill="#DB4416"/>
<path d="M17.4323 12.208C17.6331 12.2117 17.783 12.3304 17.8044 12.4978C17.8074 12.5209 17.808 12.5444 17.808 12.5678C17.808 12.586 17.8077 12.6044 17.8077 12.6226V15.0317C17.8077 15.4351 17.8078 15.8386 17.8077 16.242C17.8077 16.6455 17.8074 17.0488 17.8067 17.4522C17.8064 17.512 17.8024 17.5744 17.7825 17.6312C17.7381 17.7576 17.6047 17.8419 17.4579 17.8495C17.4507 17.85 17.4434 17.8501 17.4362 17.8501C17.4135 17.8495 17.4053 17.8491 17.3972 17.8483C17.2227 17.8317 17.0898 17.7199 17.0688 17.569C17.0627 17.524 17.0621 17.4782 17.0621 17.4329C17.0617 15.8306 17.0617 14.2282 17.0621 12.6259C17.0621 12.5844 17.0621 12.5425 17.0667 12.5011C17.0865 12.327 17.2348 12.2088 17.4323 12.208Z" fill="#DB4416"/>
<path d="M19.9321 14.9824V15.4746C19.9321 16.5534 19.9316 17.6322 19.9298 18.7108C19.9286 19.4627 19.5364 20.0147 18.7527 20.3473C18.4937 20.457 18.2143 20.5023 17.9267 20.5023C16.7715 20.5026 15.6159 20.5042 14.4607 20.5042C13.6645 20.5042 12.8686 20.5035 12.0724 20.5011C10.9287 20.4975 10.0696 19.7297 10.0684 18.7223C10.0675 17.9311 10.0672 17.14 10.0672 16.3488V15.8566C10.0672 16.6477 10.0675 17.4389 10.0684 18.2301C10.0696 19.2376 10.9287 20.0053 12.0724 20.0089C12.8686 20.0113 13.6645 20.012 14.4607 20.012C15.6159 20.012 16.7715 20.0104 17.9267 20.0101C18.2143 20.0101 18.4937 19.9648 18.7527 19.8551C19.5364 19.5225 19.9286 18.9706 19.9298 18.2187C19.9316 17.1399 19.9321 16.0611 19.9321 14.9824Z" fill="#BF3F1F"/>
<path d="M19.9321 14.9824V15.4746C19.9321 16.5534 19.9316 17.6322 19.9298 18.7108C19.9297 18.7513 19.9285 18.7919 19.9261 18.8323V18.3401C19.9285 18.3002 19.9297 18.2597 19.9298 18.2186C19.9316 17.1399 19.9321 16.0611 19.9321 14.9824ZM19.9261 18.3401V18.8323C19.9038 19.203 19.7807 19.5218 19.5567 19.7863V19.2941C19.7807 19.0296 19.9038 18.7108 19.9261 18.3401ZM19.5567 19.2941V19.7863C19.4428 19.9207 19.303 20.041 19.1371 20.147V19.6548C19.303 19.5488 19.4428 19.4285 19.5567 19.2941ZM19.137 19.6548V20.147C19.0216 20.2208 18.8935 20.2876 18.7527 20.3474C18.7261 20.3587 18.6992 20.3693 18.6722 20.3792V19.887C18.6993 19.8771 18.7261 19.8664 18.7527 19.8552C18.8934 19.7954 19.0216 19.7286 19.137 19.6548ZM18.6722 19.887V20.3792C18.5386 20.4282 18.4002 20.4612 18.2583 20.4806V19.9884C18.4002 19.969 18.5386 19.936 18.6722 19.887ZM18.2583 19.9884V20.4806C18.1495 20.4955 18.0387 20.5023 17.9267 20.5023C16.7715 20.5026 15.6159 20.5042 14.4607 20.5042C13.6644 20.5042 12.8686 20.5035 12.0724 20.5011C10.9287 20.4976 10.0696 19.7297 10.0684 18.7224C10.0675 17.9312 10.0672 17.14 10.0672 16.3488V15.8566C10.0672 16.6478 10.0675 17.439 10.0684 18.2302C10.0696 19.2376 10.9287 20.0053 12.0724 20.0089C12.8686 20.0113 13.6644 20.012 14.4607 20.012C15.6159 20.012 16.7715 20.0104 17.9267 20.0101C18.0388 20.0101 18.1495 20.0033 18.2583 19.9884Z" fill="#BF3F1F"/>
</svg>
