<svg width="2413" height="1470" viewBox="0 0 2413 1470" fill="none" xmlns="http://www.w3.org/2000/svg">
<rect width="2413" height="1470" fill="white"/>
<path d="M1207 1128.61C1836.6 1128.61 2347 1122.53 2347 1115.04C2347 1107.54 1836.6 1101.46 1207 1101.46C577.395 1101.46 67 1107.54 67 1115.04C67 1122.53 577.395 1128.61 1207 1128.61Z" fill="#58595B"/>
<path d="M2296.48 865.328C2296.48 911.405 2263.06 952.875 2212 970.163L2119.6 1001.45C2097.44 1008.19 2074.03 1011.64 2050.45 1011.64H137.145C123.136 1011.64 111.78 1002.14 111.78 990.424V831.795C111.78 755.146 186.065 693.01 277.7 693.01H2296.48L2296.48 865.328Z" fill="black"/>
<path d="M590.758 1067.68C653.649 1004.57 653.649 902.258 590.758 839.152C527.867 776.046 425.901 776.046 363.01 839.152C300.119 902.258 300.119 1004.57 363.01 1067.68C425.901 1130.79 527.867 1130.79 590.758 1067.68Z" fill="#414042"/>
<path d="M561.574 1038.4C608.348 991.463 608.348 915.369 561.574 868.436C514.801 821.503 438.967 821.503 392.194 868.436C345.421 915.369 345.421 991.463 392.194 1038.4C438.967 1085.33 514.801 1085.33 561.574 1038.4Z" fill="black"/>
<path d="M476.919 838.854C413.827 838.854 362.706 890.203 362.706 953.514C362.706 1016.85 413.828 1068.2 476.919 1068.2C540.02 1068.2 591.143 1016.85 591.143 953.514C591.143 890.203 540.021 838.854 476.919 838.854ZM494.472 965.007L577.302 987.361C572.487 1001.76 564.681 1014.75 554.634 1025.65L494.472 965.007ZM556.053 882.966C565.882 894.066 573.503 907.171 578.036 921.689L495.562 943.948L556.053 882.966ZM500.013 849.774L478.015 932.468L455.882 849.278C462.686 847.902 469.719 847.164 476.919 847.164C484.864 847.164 492.573 848.111 500.013 849.774ZM397.796 1024.08C387.971 1012.98 380.349 999.88 375.821 985.363L458.281 963.106L397.796 1024.08ZM376.547 919.69C381.363 905.289 389.168 892.307 399.214 881.399L459.371 942.045L376.547 919.69ZM453.835 1057.28L475.833 974.585L497.966 1057.78C491.163 1059.15 484.129 1059.89 476.919 1059.89C468.984 1059.89 461.277 1058.94 453.835 1057.28Z" fill="#E6E7E8"/>
<path d="M476.925 949.303C517.003 949.303 554.2 956.28 584.998 968.205C585.695 963.221 586.178 958.17 586.178 952.996C586.178 892.619 537.275 843.648 476.925 843.648C416.574 843.648 367.672 892.619 367.672 952.996C367.672 958.17 368.155 963.221 368.851 968.205C399.65 956.282 436.846 949.303 476.925 949.303Z" fill="#D1D3D4"/>
<path d="M476.927 838.854C413.843 838.854 362.705 890.164 362.705 953.463C362.705 1016.76 413.843 1068.07 476.927 1068.07C540.006 1068.07 591.144 1016.76 591.144 953.463C591.144 890.166 540.006 838.854 476.927 838.854ZM476.927 1059.89C418.38 1059.89 370.923 1012.27 370.923 953.526C370.923 894.784 418.381 847.163 476.927 847.163C535.464 847.163 582.922 894.784 582.922 953.526C582.922 1012.27 535.464 1059.89 476.927 1059.89Z" fill="white"/>
<path d="M476.925 918.382C496.226 918.382 511.863 934.08 511.863 953.435C511.863 972.8 496.226 1019.55 476.925 1019.55C457.624 1019.55 441.986 972.8 441.986 953.435C441.986 934.08 457.624 918.382 476.925 918.382Z" fill="#939598"/>
<path d="M490.468 985.626C508.24 978.085 516.554 957.515 509.038 939.682C501.522 921.85 481.023 913.507 463.251 921.049C445.479 928.59 437.165 949.16 444.681 966.993C452.197 984.825 472.697 993.168 490.468 985.626Z" fill="white"/>
<path d="M2012.61 1067.69C2075.5 1004.58 2075.5 902.268 2012.61 839.162C1949.72 776.056 1847.76 776.056 1784.87 839.162C1721.97 902.268 1721.97 1004.58 1784.87 1067.69C1847.76 1130.8 1949.72 1130.8 2012.61 1067.69Z" fill="#414042"/>
<path d="M1983.43 1038.41C2030.2 991.473 2030.2 915.379 1983.43 868.446C1936.66 821.512 1860.82 821.512 1814.05 868.446C1767.28 915.379 1767.28 991.473 1814.05 1038.41C1860.82 1085.34 1936.66 1085.34 1983.43 1038.41Z" fill="black"/>
<path d="M1898.79 838.854C1835.69 838.854 1784.57 890.203 1784.57 953.514C1784.57 1016.85 1835.69 1068.2 1898.79 1068.2C1961.89 1068.2 2013.01 1016.85 2013.01 953.514C2013.01 890.203 1961.89 838.854 1898.79 838.854ZM1916.34 965.007L1999.17 987.361C1994.35 1001.76 1986.55 1014.75 1976.5 1025.65L1916.34 965.007ZM1977.92 882.966C1987.75 894.066 1995.37 907.171 1999.9 921.689L1917.43 943.948L1977.92 882.966ZM1921.88 849.774L1899.88 932.468L1877.75 849.278C1884.55 847.902 1891.58 847.164 1898.78 847.164C1906.73 847.164 1914.44 848.111 1921.88 849.774ZM1819.66 1024.08C1809.84 1012.98 1802.21 999.88 1797.69 985.363L1880.15 963.106L1819.66 1024.08ZM1798.41 919.69C1803.23 905.289 1811.03 892.307 1821.08 881.399L1881.24 942.045L1798.41 919.69ZM1875.7 1057.28L1897.7 974.585L1919.83 1057.78C1913.03 1059.15 1905.99 1059.89 1898.79 1059.89C1890.85 1059.89 1883.14 1058.94 1875.7 1057.28Z" fill="#E6E7E8"/>
<path d="M1898.79 949.303C1938.87 949.303 1976.06 956.28 2006.86 968.205C2007.56 963.221 2008.04 958.17 2008.04 952.996C2008.04 892.619 1959.14 843.648 1898.79 843.648C1838.44 843.648 1789.54 892.619 1789.54 952.996C1789.54 958.17 1790.02 963.221 1790.72 968.205C1821.51 956.282 1858.71 949.303 1898.79 949.303Z" fill="#D1D3D4"/>
<path d="M1898.79 838.854C1835.71 838.854 1784.57 890.164 1784.57 953.463C1784.57 1016.76 1835.71 1068.07 1898.79 1068.07C1961.87 1068.07 2013.01 1016.76 2013.01 953.463C2013.01 890.166 1961.87 838.854 1898.79 838.854ZM1898.79 1059.89C1840.25 1059.89 1792.79 1012.27 1792.79 953.526C1792.79 894.784 1840.25 847.163 1898.79 847.163C1957.33 847.163 2004.79 894.784 2004.79 953.526C2004.79 1012.27 1957.33 1059.89 1898.79 1059.89Z" fill="white"/>
<path d="M1898.79 918.382C1918.09 918.382 1933.73 934.08 1933.73 953.435C1933.73 972.8 1918.09 1019.55 1898.79 1019.55C1879.49 1019.55 1863.85 972.8 1863.85 953.435C1863.85 934.08 1879.49 918.382 1898.79 918.382Z" fill="#939598"/>
<path d="M1912.29 985.889C1930.12 978.48 1938.59 957.971 1931.2 940.082C1923.82 922.193 1903.38 913.699 1885.55 921.109C1867.72 928.518 1859.26 949.027 1866.64 966.916C1874.03 984.805 1894.47 993.299 1912.29 985.889Z" fill="white"/>
<path d="M2296.48 535.996H2192.24C2148.7 535.996 2106.12 525.434 2069.36 505.523C1952.06 441.979 1786.61 330.17 1715.4 301.181C1715.4 301.181 1661.1 288 1505.44 288C1277.49 288 1199.16 302.698 1182.71 306.202C980.301 349.339 754.663 535.996 754.663 535.996C754.663 535.996 468.99 559.666 206.991 678.766C148.278 705.454 72.9715 757.609 72.9715 814.368C71.1799 884.123 94.265 993.402 107.627 993.402C107.627 993.402 172.621 993.359 279.078 993.289C278.251 983.314 277.786 973.247 277.786 963.105C277.786 816.137 366.944 741.637 476.923 741.637C586.906 741.637 676.065 816.137 676.065 963.105C676.065 973.159 675.608 983.142 674.794 993.03C1002.43 992.817 1406.58 992.555 1700.86 992.376C1700.08 982.699 1699.65 972.935 1699.65 963.105C1699.65 816.137 1788.81 741.637 1898.79 741.637C2008.77 741.637 2097.92 816.137 2097.92 963.105C2097.92 972.805 2097.52 982.44 2096.76 991.991L2268.41 943.992C2340.7 881.047 2340.26 673.175 2340.26 673.175C2340.26 601.526 2322.13 535.996 2296.48 535.996Z" fill="#F7BF00"/>
<path d="M2068.92 586.356H2330.39C2322.6 556.187 2310.7 535.996 2296.48 535.996H2192.25C2148.7 535.996 2106.12 525.434 2069.37 505.523C1952.06 441.979 1786.61 330.17 1715.41 301.181C1715.41 301.181 1661.1 288 1505.44 288C1277.49 288 1199.16 302.698 1182.72 306.202C980.303 349.339 754.664 535.996 754.664 535.996C754.664 535.996 468.992 559.666 206.992 678.766C158.8 700.672 99.5129 739.745 79.7798 784.425C306.248 660.601 835.093 586.356 2068.92 586.356Z" fill="#FECD27"/>
<path d="M1939.2 516.744C1952.38 516.679 1959.61 507.364 1961.79 499.408C1963.99 491.414 1962.53 479.651 1951.19 472.785C1934.58 462.725 1917.88 452.532 1901.37 442.458C1825.69 396.259 1754.2 352.622 1713.76 336.16C1713.54 336.16 1658.08 323.301 1505.44 323.301C1285.6 323.301 1203.54 337.162 1183.62 341.411C1024.16 375.388 851.716 497.53 782.052 550.906C1109.69 530.109 1488.26 518.931 1939.2 516.744Z" fill="#85D5D0"/>
<path d="M2250.67 641.107L2258.28 661.258C2271.79 697.01 2301.85 723.009 2337.73 731.918C2341.17 686.773 2341.13 652.95 2341.13 652.95C2341.13 638.426 2339.33 625.492 2336.86 614.43H2269.03C2255.29 614.43 2245.8 628.219 2250.67 641.107Z" fill="#BE1E2D"/>
<path d="M2278.86 644.053L2283.63 656.682C2288.72 670.169 2297.58 681.441 2308.72 689.495C2319.36 697.184 2334.31 689.493 2334.89 676.35C2335.56 661.235 2335.55 651.475 2335.55 651.475C2335.55 650.139 2335.52 648.823 2335.48 647.529C2335.07 636.287 2326.01 627.334 2314.8 627.334H2290.36C2281.75 627.335 2275.81 635.978 2278.86 644.053Z" fill="#FECD27"/>
<path opacity="0.5" d="M2259.72 627.584L2263.97 634.325C2268.5 641.523 2276.37 647.539 2286.28 651.838C2295.73 655.941 2309.03 651.837 2309.54 644.822C2310.13 636.755 2310.12 631.546 2310.12 631.546C2310.12 630.833 2310.1 630.13 2310.06 629.439C2309.7 623.44 2301.65 618.66 2291.68 618.66H2269.95C2262.3 618.661 2257.01 623.275 2259.72 627.584Z" fill="white"/>
<path d="M2337.73 733.015C2337.64 733.015 2337.56 733.006 2337.47 732.985C2300.67 723.844 2270.68 697.176 2257.26 661.648L2249.65 641.497C2247.2 635.009 2248.05 628.017 2251.97 622.312C2255.9 616.608 2262.12 613.334 2269.03 613.334H2336.86C2337.46 613.334 2337.95 613.826 2337.95 614.43C2337.95 615.033 2337.46 615.525 2336.86 615.525H2269.03C2262.84 615.525 2257.28 618.453 2253.77 623.558C2250.26 628.663 2249.5 634.916 2251.69 640.718L2259.3 660.87C2272.47 695.729 2301.89 721.888 2337.99 730.857C2338.58 730.998 2338.94 731.594 2338.79 732.184C2338.67 732.681 2338.22 733.015 2337.73 733.015Z" fill="black"/>
<path d="M690.039 738.551C690.039 738.551 1252.39 694.008 1489.79 683.143C1727.18 672.277 2222.72 643.281 2222.72 643.281C2222.72 643.281 1534.54 741.808 690.039 738.551Z" fill="#FECD27"/>
<path d="M2312.65 824.488H2169.85C2128.49 824.488 2090.77 805.887 2068.17 776.325C2034.45 732.209 1985.47 705.793 1923.37 705.793C1860.39 705.793 1811.22 722.636 1773 751.813C1703.54 804.846 1614.62 835.664 1522.16 845.697L822.323 911.549C756.534 918.689 694.044 885.258 672.694 831.69C642.244 755.316 582.134 705.793 497.581 705.793C371.268 705.793 300.469 773.494 262.219 872.663C249.796 904.869 216.101 927.702 176.52 930.68L99.8552 936.453C92.029 937.043 92.4636 948.7 100.313 948.7H203.415C226.437 948.7 243.232 969.856 229.851 989.495C231.064 991.706 230.78 991.191 231.993 993.402H279.088C278.257 983.388 277.787 973.284 277.787 963.104C277.787 816.135 366.945 741.636 476.924 741.636C586.907 741.636 676.066 816.135 676.066 963.104C676.066 973.284 675.593 983.388 674.761 993.402H694.349L694.352 993.399C695.943 966.202 721.633 944.671 753.483 944.671H1608.11C1638.34 944.671 1661.7 967.32 1657.85 992.901L1657.78 993.402C1657.78 993.402 1673.97 993.325 1700.93 993.21C1700.11 983.26 1699.65 973.219 1699.65 963.105C1699.65 816.136 1788.81 741.637 1898.79 741.637C2008.77 741.637 2097.93 816.136 2097.93 963.105C2097.93 972.804 2097.52 982.439 2096.76 991.99L2120.82 985.261C2123 946.73 2120.25 910.36 2112.97 877.36L2312.65 824.488Z" fill="#FECD27"/>
<path d="M232.993 746.057C239.885 726.434 225.572 705.793 205.068 705.793H157.329C112.942 734.186 72.9724 773.03 72.9724 814.368C72.7594 822.725 72.9083 831.66 73.3478 840.899H100.574C159.998 840.9 213.009 802.934 232.993 746.057Z" fill="black"/>
<path d="M228.14 744.816C234.908 725.799 220.856 705.793 200.731 705.793H157.329C112.942 734.186 72.9722 773.03 72.9722 814.368C72.7894 821.463 72.8778 828.977 73.1732 836.734H98.1649C156.493 836.734 208.527 799.939 228.14 744.816Z" fill="#E6E7E8"/>
<path d="M192.883 775.574C196.543 765.291 188.944 754.473 178.061 754.473H154.591C130.588 769.826 108.975 790.831 108.975 813.185C108.876 817.022 108.925 821.085 109.084 825.279H122.599C154.14 825.279 182.276 805.382 192.883 775.574Z" fill="#D1D3D4"/>
<path d="M181.639 743.783C185.299 733.5 177.7 722.682 166.818 722.682H143.347C119.345 738.035 97.7317 759.04 97.7317 781.394C97.6325 785.23 97.6809 789.294 97.8395 793.488H111.354C142.896 793.487 171.034 773.591 181.639 743.783Z" fill="white"/>
<path d="M1713.76 336.162C1713.55 336.162 1658.08 323.303 1505.44 323.303C1285.6 323.303 1203.54 337.164 1183.62 341.413C1051.54 369.556 910.616 458.155 826.503 518.093C826.251 526.01 826.349 537.556 826.741 548.179C881.159 544.914 936.993 541.91 994.289 539.157C990.332 534.316 987.252 528.501 985.589 521.863L979.269 496.633C975.273 480.678 981.559 463.741 994.566 455.603C1057.1 416.464 1128.27 380.356 1196.71 364.237C1212.49 360.519 1271.75 349.385 1421.25 346.779V524.003C1431.24 523.759 1441.17 523.507 1451.25 523.276V346.382C1462.73 346.279 1474.68 346.225 1487.12 346.225C1617.36 346.225 1669.09 357.676 1674.75 359.033C1687.09 364.636 1702.68 373.369 1720.47 384.178V518.606C1724.38 518.559 1728.3 518.514 1732.22 518.469V391.42C1751.25 403.295 1772.38 417.15 1794.66 432.011C1815.26 445.748 1829.3 468.957 1832.94 495.297L1836.01 517.433C1856.42 517.267 1877.04 517.127 1897.76 516.998C1904.57 495.998 1906.81 464.904 1902.97 443.434C1902.44 443.111 1901.9 442.785 1901.37 442.459C1825.69 396.261 1754.2 352.624 1713.76 336.162Z" fill="#231F20"/>
<path d="M1435.7 386.887H1410.02C1388.13 386.887 1369.31 402.459 1365.14 424.025L1345.42 525.985C1375.08 525.155 1405.09 524.378 1435.49 523.656L1456.94 412.726C1459.53 399.329 1449.3 386.887 1435.7 386.887ZM1901.37 442.46C1884.48 432.147 1867.82 421.984 1851.64 412.196C1849.79 415.891 1848.26 419.799 1847.44 424.025L1829.38 517.491C1858.97 517.245 1888.86 517.033 1919.11 516.868L1930.11 459.954C1920.52 454.112 1910.89 448.271 1901.37 442.46Z" fill="#58595B"/>
<path opacity="0.5" d="M1183.62 429.701C1203.54 425.452 1285.6 411.591 1505.44 411.591C1658.08 411.591 1713.55 424.451 1713.76 424.451C1750.2 439.281 1811.84 476.175 1879.02 517.116C1898.99 516.981 1918.94 516.844 1939.2 516.746C1952.38 516.681 1959.61 507.366 1961.8 499.41C1963.99 491.416 1962.53 479.653 1951.19 472.787C1934.58 462.727 1917.88 452.534 1901.37 442.46C1825.69 396.261 1754.21 352.624 1713.76 336.162C1713.55 336.162 1658.08 323.303 1505.45 323.303C1285.6 323.303 1203.54 337.164 1183.62 341.413C1024.16 375.39 851.717 497.532 782.053 550.907C827.937 547.996 874.939 545.291 922.879 542.756C1000.18 495.793 1093.95 448.808 1183.62 429.701Z" fill="white"/>
<path d="M1385.44 647.294C1406.61 647.294 1423.77 637.049 1423.77 624.411C1423.77 611.773 1406.61 601.527 1385.44 601.527C1364.27 601.527 1347.11 611.773 1347.11 624.411C1347.11 637.049 1364.27 647.294 1385.44 647.294Z" fill="#939598"/>
<path d="M1421.59 637.315H1349.3C1342.63 637.315 1337.22 631.888 1337.22 625.194V623.629C1337.22 616.935 1342.63 611.508 1349.3 611.508H1421.59C1428.26 611.508 1433.67 616.935 1433.67 623.629V625.194C1433.67 631.888 1428.26 637.315 1421.59 637.315Z" fill="white"/>
<path d="M1866.61 647.294C1887.77 647.294 1904.93 637.049 1904.93 624.411C1904.93 611.773 1887.77 601.527 1866.61 601.527C1845.44 601.527 1828.28 611.773 1828.28 624.411C1828.28 637.049 1845.44 647.294 1866.61 647.294Z" fill="#939598"/>
<path d="M1902.75 637.315H1830.46C1823.79 637.315 1818.38 631.888 1818.38 625.194V623.629C1818.38 616.935 1823.79 611.508 1830.46 611.508H1902.75C1909.42 611.508 1914.83 616.935 1914.83 623.629V625.194C1914.83 631.888 1909.42 637.315 1902.75 637.315Z" fill="white"/>
<path d="M1953.45 469.035C1860.46 412.748 1765.05 352.311 1715.4 332.101C1715.4 332.101 1661.1 318.92 1505.44 318.92C1277.49 318.92 1199.16 333.618 1182.71 337.122C1017.92 372.242 837.86 502.4 776.583 549.593C773.994 551.585 775.522 555.712 778.776 555.505C1150.68 531.789 1552.7 523.001 1939.22 521.129C1967.49 520.993 1977.66 483.69 1953.45 469.035ZM1893.08 512.646C1853.66 512.894 1814.6 513.188 1776.29 513.578V372.88C1797.31 384.756 1820.67 398.61 1845.29 413.471C1868.04 427.208 1883.56 450.417 1887.59 476.756L1893.08 512.646ZM1712.78 340.493C1726.42 346.096 1743.64 354.828 1763.3 365.638V513.727C1660.31 514.82 1561.18 516.418 1465.8 518.551V327.842C1478.49 327.74 1491.69 327.685 1505.44 327.685C1649.36 327.685 1706.52 339.136 1712.78 340.493ZM1184.53 345.696C1201.97 341.977 1267.45 330.845 1432.65 328.239V519.343C1277.27 523.051 1131.65 528.175 994.558 534.757C974.552 535.717 956.596 522.686 951.236 503.323L944.251 478.091C939.834 462.137 946.782 445.202 961.154 437.064C1030.26 397.926 1108.9 361.814 1184.53 345.696Z" fill="black"/>
<path d="M1929.44 511.387C1928.23 511.387 1927.25 512.367 1927.25 513.578V640.917C1927.25 678.772 1903.19 712.186 1867.37 724.069L1831.55 735.944C1783.47 751.884 1744.67 783.863 1722.3 825.99C1720.72 828.977 1719.2 832.011 1717.77 835.083L1681.01 913.677C1666.81 944.051 1636.03 963.677 1602.6 963.677H1450.81V520.334C1450.81 519.123 1449.83 518.143 1448.63 518.143C1447.42 518.143 1446.44 519.123 1446.44 520.334V963.677H884.247C871.939 963.677 861.929 953.629 861.929 941.279V534.804C861.929 533.593 860.949 532.612 859.746 532.612C858.534 532.612 857.562 533.593 857.562 534.804V941.279C857.562 956.048 869.528 968.059 884.246 968.059H1602.6C1637.72 968.059 1670.05 947.446 1684.97 915.539L1721.72 836.94C1723.12 833.936 1724.61 830.97 1726.15 828.052C1747.99 786.924 1785.91 755.69 1832.92 740.104L1868.73 728.229C1906.35 715.754 1931.62 680.664 1931.62 640.918V513.579C1931.62 512.367 1930.65 511.387 1929.44 511.387Z" fill="black"/>
<path d="M1014.88 537.766H904.294L909.267 486.569C911.003 468.693 922.917 455.938 936.147 457.788L995.932 466.151C1014.46 468.743 1029.08 488.648 1030.92 513.773C1031.86 526.623 1024.41 537.766 1014.88 537.766Z" fill="#FECD27"/>
<path d="M1001.18 537.766H887.873V518.502H985.761C994.275 518.502 1001.18 525.427 1001.18 533.971L1001.18 537.766Z" fill="black"/>
<path d="M995.931 466.15L936.147 457.786C922.917 455.935 911.003 468.691 909.266 486.567L908.188 497.687H987.077C999.673 497.687 1010.81 490.378 1017.76 479.297C1011.8 472.165 1004.31 467.324 995.931 466.15Z" fill="#FECD27"/>
</svg>
