<svg width="15" height="14" viewBox="0 0 15 14" fill="none" xmlns="http://www.w3.org/2000/svg">
<path d="M11.1706 2.27978L3.98179 9.46859L1.33844 6.82523C1.27317 6.76929 1.19625 6.74131 1.10767 6.74131C1.01909 6.74131 0.942167 6.76929 0.876898 6.82523L0.0936817 7.60845C0.0377377 7.67372 0.00976562 7.75064 0.00976562 7.83922C0.00976562 7.92779 0.0377377 8.00472 0.0936817 8.06999L3.74403 11.7203C3.8093 11.7856 3.88855 11.8182 3.98179 11.8182C4.07503 11.8182 4.14963 11.7856 4.20557 11.7203L12.4154 3.52453C12.4713 3.45926 12.4993 3.38001 12.4993 3.28677C12.4993 3.19353 12.4713 3.11427 12.4154 3.04901L11.6321 2.27978C11.5669 2.21451 11.49 2.18187 11.4014 2.18187C11.3128 2.18187 11.2359 2.21451 11.1706 2.27978Z" fill="#FFCC00"/>
</svg>
