<svg width="60" height="60" viewBox="0 0 60 60" fill="none" xmlns="http://www.w3.org/2000/svg">
<path d="M30 0C17.5734 0 7.5 10.0734 7.5 22.5C7.5 27.8231 9.84562 32.5041 12.4416 36.5625L28.47 59.2087C28.8216 59.7056 29.3925 60 30 60C30.6075 60 31.1784 59.7056 31.53 59.2087L47.5584 36.5625C50.0391 33.2231 52.5 27.8231 52.5 22.5C52.5 10.0734 42.4266 0 30 0ZM30 35.625C22.7513 35.625 16.875 29.7487 16.875 22.5C16.875 15.2513 22.7513 9.375 30 9.375C37.2487 9.375 43.125 15.2513 43.125 22.5C43.125 29.7487 37.2487 35.625 30 35.625Z" fill="#FECD27"/>
<path d="M30 11.25C23.7872 11.25 18.75 16.2872 18.75 22.5C18.75 28.7128 23.7872 33.75 30 33.75C36.2128 33.75 41.25 28.7128 41.25 22.5C41.25 16.2872 36.2128 11.25 30 11.25ZM30 31.875C24.8222 31.875 20.625 27.6769 20.625 22.5C20.625 17.3231 24.8222 13.125 30 13.125C35.1778 13.125 39.375 17.3231 39.375 22.5C39.375 27.6769 35.1778 31.875 30 31.875Z" fill="#FECD27"/>
</svg>
