<svg width="323" height="200" viewBox="0 0 323 200" fill="none" xmlns="http://www.w3.org/2000/svg">
<path d="M117.461 124.8C117.461 133.067 115.928 140.2 112.861 146.2C109.794 152.2 105.661 157.133 100.461 161C95.2609 164.867 89.4609 167.733 83.0609 169.6C76.6609 171.467 70.0609 172.4 63.2609 172.4C54.7276 172.4 47.0609 171.4 40.2609 169.4C33.5943 167.4 27.7276 164.8 22.6609 161.6C17.5943 158.267 13.1276 154.667 9.26094 150.8L22.6609 128.6C25.9943 131.933 29.5943 134.933 33.4609 137.6C37.4609 140.267 41.5943 142.4 45.8609 144C50.1276 145.467 54.1943 146.2 58.0609 146.2C64.0609 146.2 69.1276 145.267 73.2609 143.4C77.5276 141.533 80.7943 138.867 83.0609 135.4C85.3276 131.8 86.4609 127.4 86.4609 122.2C86.4609 117.133 85.1276 112.867 82.4609 109.4C79.9276 105.933 76.4609 103.333 72.0609 101.6C67.7943 99.7333 63.1276 98.8 58.0609 98.8C54.3276 98.8 50.3943 99.1333 46.2609 99.8C42.1276 100.333 37.8609 101.333 33.4609 102.8C29.1943 104.133 24.6609 106.133 19.8609 108.8L39.0609 30H115.261V54.8H60.2609L51.8609 83.6C55.3276 81.7333 58.9943 80.4667 62.8609 79.8C66.8609 79 70.9276 78.6 75.0609 78.6C82.6609 78.6 89.6609 80.4667 96.0609 84.2C102.461 87.9333 107.594 93.2667 111.461 100.2C115.461 107 117.461 115.2 117.461 124.8ZM161.284 100C161.284 107.067 161.951 113.533 163.284 119.4C164.618 125.133 166.551 130.133 169.084 134.4C171.618 138.533 174.618 141.733 178.084 144C181.551 146.267 185.418 147.4 189.684 147.4C194.084 147.4 198.018 146.267 201.484 144C204.951 141.733 207.951 138.533 210.484 134.4C213.018 130.133 214.951 125.133 216.284 119.4C217.618 113.533 218.284 107.067 218.284 100C218.284 92.9333 217.618 86.5333 216.284 80.8C214.951 74.9333 213.018 69.9333 210.484 65.8C207.951 61.5333 204.951 58.2667 201.484 56C198.018 53.7333 194.084 52.6 189.684 52.6C185.418 52.6 181.551 53.7333 178.084 56C174.618 58.2667 171.618 61.5333 169.084 65.8C166.551 69.9333 164.618 74.9333 163.284 80.8C161.951 86.5333 161.284 92.9333 161.284 100ZM133.484 100C133.484 85.2 135.818 72.4 140.484 61.6C145.284 50.8 151.884 42.4667 160.284 36.6C168.818 30.6 178.618 27.6 189.684 27.6C201.151 27.6 211.084 30.6 219.484 36.6C227.884 42.4667 234.418 50.8 239.084 61.6C243.751 72.4 246.084 85.2 246.084 100C246.084 114.8 243.751 127.6 239.084 138.4C234.418 149.2 227.884 157.6 219.484 163.6C211.084 169.467 201.151 172.4 189.684 172.4C178.618 172.4 168.818 169.467 160.284 163.6C151.884 157.6 145.284 149.2 140.484 138.4C135.818 127.6 133.484 114.8 133.484 100Z" fill="#FFCC00"/>
<path d="M255.515 61.8643C255.515 59.731 256.005 57.811 256.987 56.1044C258.011 54.3977 259.397 53.0537 261.147 52.0723C262.896 51.0484 264.859 50.5364 267.035 50.5364C269.253 50.5364 271.216 51.0484 272.923 52.0723C274.672 53.0537 276.037 54.3977 277.019 56.1044C278 57.811 278.491 59.731 278.491 61.8643C278.491 63.9123 278 65.811 277.019 67.5604C276.037 69.267 274.672 70.6324 272.923 71.6564C271.216 72.6804 269.253 73.1924 267.035 73.1924C264.859 73.1924 262.896 72.6804 261.147 71.6564C259.397 70.6324 258.011 69.267 256.987 67.5604C256.005 65.811 255.515 63.9123 255.515 61.8643ZM262.427 61.8643C262.427 62.7177 262.619 63.5283 263.003 64.2963C263.387 65.0217 263.92 65.5977 264.603 66.0243C265.285 66.451 266.096 66.6644 267.035 66.6644C267.973 66.6644 268.763 66.451 269.403 66.0243C270.085 65.5977 270.619 65.0217 271.003 64.2963C271.387 63.5283 271.579 62.7177 271.579 61.8643C271.579 60.9684 271.387 60.1577 271.003 59.4324C270.619 58.707 270.085 58.131 269.403 57.7043C268.763 57.235 267.973 57.0004 267.035 57.0004C266.096 57.0004 265.285 57.235 264.603 57.7043C263.92 58.131 263.387 58.707 263.003 59.4324C262.619 60.1577 262.427 60.9684 262.427 61.8643ZM284.635 86.0564C284.635 83.9657 285.125 82.067 286.107 80.3604C287.131 78.611 288.517 77.2457 290.267 76.2644C292.016 75.2404 293.979 74.7283 296.155 74.7283C298.373 74.7283 300.336 75.2404 302.043 76.2644C303.792 77.2457 305.157 78.611 306.139 80.3604C307.12 82.067 307.611 83.9657 307.611 86.0564C307.611 88.147 307.12 90.0457 306.139 91.7524C305.157 93.459 303.792 94.8244 302.043 95.8484C300.336 96.8724 298.373 97.3844 296.155 97.3844C293.979 97.3844 292.016 96.8724 290.267 95.8484C288.517 94.8244 287.131 93.459 286.107 91.7524C285.125 90.0457 284.635 88.147 284.635 86.0564ZM291.547 86.0564C291.547 86.9097 291.739 87.7204 292.123 88.4884C292.507 89.2137 293.04 89.7897 293.723 90.2164C294.405 90.643 295.216 90.8564 296.155 90.8564C297.093 90.8564 297.883 90.643 298.523 90.2164C299.205 89.7897 299.739 89.2137 300.123 88.4884C300.507 87.7204 300.699 86.9097 300.699 86.0564C300.699 85.1604 300.507 84.3497 300.123 83.6244C299.739 82.899 299.205 82.323 298.523 81.8964C297.883 81.4697 297.093 81.2564 296.155 81.2564C295.216 81.2564 294.405 81.4697 293.723 81.8964C293.04 82.323 292.507 82.899 292.123 83.6244C291.739 84.3497 291.547 85.1604 291.547 86.0564ZM293.723 51.5603H302.107L269.467 96.3604H261.083L293.723 51.5603Z" fill="#FFCC00"/>
<path d="M258.48 125.86C258.48 127.2 258.76 128.39 259.32 129.43C259.88 130.47 260.65 131.29 261.63 131.89C262.61 132.49 263.75 132.79 265.05 132.79C266.35 132.79 267.49 132.49 268.47 131.89C269.45 131.29 270.21 130.47 270.75 129.43C271.31 128.39 271.59 127.2 271.59 125.86C271.59 124.52 271.32 123.33 270.78 122.29C270.24 121.25 269.48 120.43 268.5 119.83C267.52 119.23 266.37 118.93 265.05 118.93C263.75 118.93 262.61 119.23 261.63 119.83C260.65 120.43 259.88 121.25 259.32 122.29C258.76 123.33 258.48 124.52 258.48 125.86ZM253.95 125.86C253.95 124.26 254.23 122.8 254.79 121.48C255.35 120.14 256.13 118.98 257.13 118C258.13 117.02 259.3 116.27 260.64 115.75C262 115.21 263.47 114.94 265.05 114.94C266.65 114.94 268.12 115.21 269.46 115.75C270.8 116.27 271.97 117.02 272.97 118C273.99 118.98 274.77 120.14 275.31 121.48C275.87 122.8 276.15 124.26 276.15 125.86C276.15 127.44 275.87 128.91 275.31 130.27C274.77 131.61 274 132.78 273 133.78C272.02 134.78 270.85 135.56 269.49 136.12C268.15 136.66 266.67 136.93 265.05 136.93C263.43 136.93 261.94 136.66 260.58 136.12C259.24 135.56 258.07 134.78 257.07 133.78C256.07 132.78 255.3 131.61 254.76 130.27C254.22 128.91 253.95 127.44 253.95 125.86ZM282.226 119.11V115.36H291.616V119.11H282.226ZM282.226 127.39V123.82H291.316V127.39H282.226ZM279.466 115.36H283.606V136.36H279.466V115.36ZM298.31 119.11V115.36H307.7V119.11H298.31ZM298.31 127.39V123.82H307.4V127.39H298.31ZM295.55 115.36H299.69V136.36H295.55V115.36Z" fill="#FFCC00"/>
<mask id="path-4-inside-1_73_25" fill="white">
<path d="M241 191H321V192H241V191Z"/>
</mask>
<path d="M241 192H321V190H241V192Z" fill="white" fill-opacity="0.3" mask="url(#path-4-inside-1_73_25)"/>
</svg>
